<?xml version="1.0" encoding="UTF-8" standalone="no"?>
<!DOCTYPE svg PUBLIC "-//W3C//DTD SVG 1.1//EN"
 "http://www.w3.org/Graphics/SVG/1.1/DTD/svg11.dtd">
<!-- Generated by graphviz version 2.43.0 (0)
 -->
<!-- Title: sourcetree Pages: 1 -->
<svg width="2670pt" height="260pt"
 viewBox="0.00 0.00 2670.00 260.00" xmlns="http://www.w3.org/2000/svg" xmlns:xlink="http://www.w3.org/1999/xlink">
<g id="graph0" class="graph" transform="scale(1 1) rotate(0) translate(4 256)">
<title>sourcetree</title>
<polygon fill="white" stroke="transparent" points="-4,4 -4,-256 2666,-256 2666,4 -4,4"/>
<!-- Foundation -->
<g id="node1" class="node">
<title>Foundation</title>
<polygon fill="yellow" stroke="black" points="2108,-252 2011,-252 2011,-216 2108,-216 2108,-252"/>
<text text-anchor="middle" x="2059.5" y="-230.3" font-family="Times,serif" font-size="14.00">Foundation</text>
</g>
<!-- MulleFoundation -->
<g id="node2" class="node">
<title>MulleFoundation</title>
<polygon fill="lightgrey" stroke="black" points="1038,-180 901,-180 901,-144 1038,-144 1038,-180"/>
<text text-anchor="middle" x="969.5" y="-158.3" font-family="Times,serif" font-size="14.00">MulleFoundation</text>
</g>
<!-- Foundation&#45;&gt;MulleFoundation -->
<g id="edge1" class="edge">
<title>Foundation&#45;&gt;MulleFoundation</title>
<path fill="none" stroke="black" d="M2010.9,-229.88C1839.27,-218.86 1260.51,-181.69 1048.33,-168.06"/>
<polygon fill="black" stroke="black" points="1048.4,-164.56 1038.2,-167.41 1047.96,-171.55 1048.4,-164.56"/>
</g>
<!-- mulle&#45;objc&#45;compat -->
<g id="node3" class="node">
<title>mulle&#45;objc&#45;compat</title>
<polygon fill="lightgrey" stroke="black" points="1702,-180 1555,-180 1555,-144 1702,-144 1702,-180"/>
<text text-anchor="middle" x="1628.5" y="-158.3" font-family="Times,serif" font-size="14.00">mulle&#45;objc&#45;compat</text>
</g>
<!-- Foundation&#45;&gt;mulle&#45;objc&#45;compat -->
<g id="edge2" class="edge">
<title>Foundation&#45;&gt;mulle&#45;objc&#45;compat</title>
<path fill="none" stroke="black" d="M2010.81,-226.45C1945.21,-217.43 1824.6,-200.21 1712.36,-180.29"/>
<polygon fill="black" stroke="black" points="1712.68,-176.79 1702.22,-178.48 1711.45,-183.68 1712.68,-176.79"/>
</g>
<!-- MulleObjCExpatFoundation -->
<g id="node4" class="node">
<title>MulleObjCExpatFoundation</title>
<polygon fill="lightgrey" stroke="black" points="1935,-180 1720,-180 1720,-144 1935,-144 1935,-180"/>
<text text-anchor="middle" x="1827.5" y="-158.3" font-family="Times,serif" font-size="14.00">MulleObjCExpatFoundation</text>
</g>
<!-- Foundation&#45;&gt;MulleObjCExpatFoundation -->
<g id="edge3" class="edge">
<title>Foundation&#45;&gt;MulleObjCExpatFoundation</title>
<path fill="none" stroke="black" d="M2010.87,-218.33C1976.96,-208.09 1931.3,-194.32 1894.02,-183.07"/>
<polygon fill="black" stroke="black" points="1894.83,-179.66 1884.25,-180.12 1892.81,-186.36 1894.83,-179.66"/>
</g>
<!-- MulleObjCHTTPFoundation -->
<g id="node5" class="node">
<title>MulleObjCHTTPFoundation</title>
<polygon fill="lightgrey" stroke="black" points="2166,-180 1953,-180 1953,-144 2166,-144 2166,-180"/>
<text text-anchor="middle" x="2059.5" y="-158.3" font-family="Times,serif" font-size="14.00">MulleObjCHTTPFoundation</text>
</g>
<!-- Foundation&#45;&gt;MulleObjCHTTPFoundation -->
<g id="edge4" class="edge">
<title>Foundation&#45;&gt;MulleObjCHTTPFoundation</title>
<path fill="none" stroke="black" d="M2059.5,-215.7C2059.5,-207.98 2059.5,-198.71 2059.5,-190.11"/>
<polygon fill="black" stroke="black" points="2063,-190.1 2059.5,-180.1 2056,-190.1 2063,-190.1"/>
</g>
<!-- MulleObjCInetOSFoundation -->
<g id="node6" class="node">
<title>MulleObjCInetOSFoundation</title>
<polygon fill="lightgrey" stroke="black" points="2405.5,-180 2183.5,-180 2183.5,-144 2405.5,-144 2405.5,-180"/>
<text text-anchor="middle" x="2294.5" y="-158.3" font-family="Times,serif" font-size="14.00">MulleObjCInetOSFoundation</text>
</g>
<!-- Foundation&#45;&gt;MulleObjCInetOSFoundation -->
<g id="edge5" class="edge">
<title>Foundation&#45;&gt;MulleObjCInetOSFoundation</title>
<path fill="none" stroke="black" d="M2108.19,-218.5C2142.62,-208.24 2189.23,-194.36 2227.21,-183.04"/>
<polygon fill="black" stroke="black" points="2228.59,-186.29 2237.17,-180.08 2226.59,-179.58 2228.59,-186.29"/>
</g>
<!-- mulle&#45;objc&#45;list -->
<g id="node7" class="node">
<title>mulle&#45;objc&#45;list</title>
<polygon fill="lightgrey" stroke="black" points="2541,-180 2424,-180 2424,-144 2541,-144 2541,-180"/>
<text text-anchor="middle" x="2482.5" y="-158.3" font-family="Times,serif" font-size="14.00">mulle&#45;objc&#45;list</text>
</g>
<!-- Foundation&#45;&gt;mulle&#45;objc&#45;list -->
<g id="edge6" class="edge">
<title>Foundation&#45;&gt;mulle&#45;objc&#45;list</title>
<path fill="none" stroke="black" d="M2108.28,-227.24C2175,-219.02 2298.61,-202.6 2413.92,-180"/>
<polygon fill="black" stroke="black" points="2414.85,-183.39 2423.98,-178.01 2413.49,-176.52 2414.85,-183.39"/>
</g>
<!-- objc&#45;compat -->
<g id="node8" class="node">
<title>objc&#45;compat</title>
<polygon fill="lightgrey" stroke="black" points="2662,-180 2559,-180 2559,-144 2662,-144 2662,-180"/>
<text text-anchor="middle" x="2610.5" y="-158.3" font-family="Times,serif" font-size="14.00">objc&#45;compat</text>
</g>
<!-- Foundation&#45;&gt;objc&#45;compat -->
<g id="edge7" class="edge">
<title>Foundation&#45;&gt;objc&#45;compat</title>
<path fill="none" stroke="black" d="M2108.34,-230.46C2195.34,-225.35 2382.86,-211.65 2549.02,-180.12"/>
<polygon fill="black" stroke="black" points="2549.76,-183.54 2558.92,-178.21 2548.44,-176.66 2549.76,-183.54"/>
</g>
<!-- MulleObjCArchiverFoundation -->
<g id="node9" class="node">
<title>MulleObjCArchiverFoundation</title>
<polygon fill="lightgrey" stroke="black" points="233,-108 0,-108 0,-72 233,-72 233,-108"/>
<text text-anchor="middle" x="116.5" y="-86.3" font-family="Times,serif" font-size="14.00">MulleObjCArchiverFoundation</text>
</g>
<!-- MulleFoundation&#45;&gt;MulleObjCArchiverFoundation -->
<g id="edge8" class="edge">
<title>MulleFoundation&#45;&gt;MulleObjCArchiverFoundation</title>
<path fill="none" stroke="black" d="M900.87,-157.44C773.39,-150.51 491.19,-133.69 243.52,-108.18"/>
<polygon fill="black" stroke="black" points="243.55,-104.66 233.24,-107.11 242.83,-111.62 243.55,-104.66"/>
</g>
<!-- MulleObjCCalendarFoundation -->
<g id="node10" class="node">
<title>MulleObjCCalendarFoundation</title>
<polygon fill="lightgrey" stroke="black" points="488,-108 251,-108 251,-72 488,-72 488,-108"/>
<text text-anchor="middle" x="369.5" y="-86.3" font-family="Times,serif" font-size="14.00">MulleObjCCalendarFoundation</text>
</g>
<!-- MulleFoundation&#45;&gt;MulleObjCCalendarFoundation -->
<g id="edge9" class="edge">
<title>MulleFoundation&#45;&gt;MulleObjCCalendarFoundation</title>
<path fill="none" stroke="black" d="M900.66,-153.71C810.77,-144.09 648.24,-126.37 498.35,-108.09"/>
<polygon fill="black" stroke="black" points="498.39,-104.57 488.04,-106.83 497.54,-111.52 498.39,-104.57"/>
</g>
<!-- MulleObjCDecimalFoundation -->
<g id="node11" class="node">
<title>MulleObjCDecimalFoundation</title>
<polygon fill="lightgrey" stroke="black" points="736.5,-108 506.5,-108 506.5,-72 736.5,-72 736.5,-108"/>
<text text-anchor="middle" x="621.5" y="-86.3" font-family="Times,serif" font-size="14.00">MulleObjCDecimalFoundation</text>
</g>
<!-- MulleFoundation&#45;&gt;MulleObjCDecimalFoundation -->
<g id="edge10" class="edge">
<title>MulleFoundation&#45;&gt;MulleObjCDecimalFoundation</title>
<path fill="none" stroke="black" d="M900.75,-147.17C847.94,-136.55 774.42,-121.76 716.08,-110.02"/>
<polygon fill="black" stroke="black" points="716.6,-106.56 706.11,-108.02 715.22,-113.42 716.6,-106.56"/>
</g>
<!-- MulleObjCKVCFoundation -->
<g id="node12" class="node">
<title>MulleObjCKVCFoundation</title>
<polygon fill="lightgrey" stroke="black" points="958,-108 755,-108 755,-72 958,-72 958,-108"/>
<text text-anchor="middle" x="856.5" y="-86.3" font-family="Times,serif" font-size="14.00">MulleObjCKVCFoundation</text>
</g>
<!-- MulleFoundation&#45;&gt;MulleObjCKVCFoundation -->
<g id="edge11" class="edge">
<title>MulleFoundation&#45;&gt;MulleObjCKVCFoundation</title>
<path fill="none" stroke="black" d="M941.86,-143.88C927.08,-134.72 908.71,-123.34 892.8,-113.48"/>
<polygon fill="black" stroke="black" points="894.59,-110.48 884.25,-108.19 890.91,-116.43 894.59,-110.48"/>
</g>
<!-- MulleObjCMathFoundation -->
<g id="node13" class="node">
<title>MulleObjCMathFoundation</title>
<polygon fill="lightgrey" stroke="black" points="1186.5,-108 976.5,-108 976.5,-72 1186.5,-72 1186.5,-108"/>
<text text-anchor="middle" x="1081.5" y="-86.3" font-family="Times,serif" font-size="14.00">MulleObjCMathFoundation</text>
</g>
<!-- MulleFoundation&#45;&gt;MulleObjCMathFoundation -->
<g id="edge12" class="edge">
<title>MulleFoundation&#45;&gt;MulleObjCMathFoundation</title>
<path fill="none" stroke="black" d="M996.9,-143.88C1011.41,-134.81 1029.42,-123.55 1045.09,-113.76"/>
<polygon fill="black" stroke="black" points="1047.37,-116.46 1054,-108.19 1043.66,-110.52 1047.37,-116.46"/>
</g>
<!-- MulleObjCOSFoundation -->
<g id="node14" class="node">
<title>MulleObjCOSFoundation</title>
<polygon fill="lightgrey" stroke="black" points="1398.5,-108 1204.5,-108 1204.5,-72 1398.5,-72 1398.5,-108"/>
<text text-anchor="middle" x="1301.5" y="-86.3" font-family="Times,serif" font-size="14.00">MulleObjCOSFoundation</text>
</g>
<!-- MulleFoundation&#45;&gt;MulleObjCOSFoundation -->
<g id="edge13" class="edge">
<title>MulleFoundation&#45;&gt;MulleObjCOSFoundation</title>
<path fill="none" stroke="black" d="M1038.29,-146.5C1088.27,-135.96 1156.39,-121.6 1210.81,-110.12"/>
<polygon fill="black" stroke="black" points="1211.74,-113.5 1220.81,-108.01 1210.3,-106.65 1211.74,-113.5"/>
</g>
<!-- MulleObjCUnicodeFoundation -->
<g id="node15" class="node">
<title>MulleObjCUnicodeFoundation</title>
<polygon fill="lightgrey" stroke="black" points="1647,-108 1416,-108 1416,-72 1647,-72 1647,-108"/>
<text text-anchor="middle" x="1531.5" y="-86.3" font-family="Times,serif" font-size="14.00">MulleObjCUnicodeFoundation</text>
</g>
<!-- MulleFoundation&#45;&gt;MulleObjCUnicodeFoundation -->
<g id="edge14" class="edge">
<title>MulleFoundation&#45;&gt;MulleObjCUnicodeFoundation</title>
<path fill="none" stroke="black" d="M1038.2,-153.03C1122.37,-143.18 1269.62,-125.72 1405.8,-108.21"/>
<polygon fill="black" stroke="black" points="1406.53,-111.64 1416,-106.9 1405.63,-104.7 1406.53,-111.64"/>
</g>
<!-- craftinfo/expat -->
<g id="node16" class="node">
<title>craftinfo/expat</title>
<polygon fill="lightgrey" stroke="black" points="1787.5,-108 1665.5,-108 1665.5,-72 1787.5,-72 1787.5,-108"/>
<text text-anchor="middle" x="1726.5" y="-86.3" font-family="Times,serif" font-size="14.00">craftinfo/expat</text>
</g>
<!-- MulleObjCExpatFoundation&#45;&gt;craftinfo/expat -->
<g id="edge15" class="edge">
<title>MulleObjCExpatFoundation&#45;&gt;craftinfo/expat</title>
<path fill="none" stroke="black" d="M1802.79,-143.88C1789.83,-134.89 1773.77,-123.76 1759.73,-114.03"/>
<polygon fill="black" stroke="black" points="1761.52,-111.01 1751.3,-108.19 1757.53,-116.76 1761.52,-111.01"/>
</g>
<!-- expat -->
<g id="node17" class="node">
<title>expat</title>
<polygon fill="lightgrey" stroke="black" points="1861.5,-108 1805.5,-108 1805.5,-72 1861.5,-72 1861.5,-108"/>
<text text-anchor="middle" x="1833.5" y="-86.3" font-family="Times,serif" font-size="14.00">expat</text>
</g>
<!-- MulleObjCExpatFoundation&#45;&gt;expat -->
<g id="edge16" class="edge">
<title>MulleObjCExpatFoundation&#45;&gt;expat</title>
<path fill="none" stroke="black" d="M1828.98,-143.7C1829.64,-135.98 1830.44,-126.71 1831.18,-118.11"/>
<polygon fill="black" stroke="black" points="1834.67,-118.37 1832.03,-108.1 1827.69,-117.77 1834.67,-118.37"/>
</g>
<!-- MulleBase64 -->
<g id="node18" class="node">
<title>MulleBase64</title>
<polygon fill="lightgrey" stroke="black" points="1989.5,-108 1879.5,-108 1879.5,-72 1989.5,-72 1989.5,-108"/>
<text text-anchor="middle" x="1934.5" y="-86.3" font-family="Times,serif" font-size="14.00">MulleBase64</text>
</g>
<!-- MulleObjCExpatFoundation&#45;&gt;MulleBase64 -->
<g id="edge17" class="edge">
<title>MulleObjCExpatFoundation&#45;&gt;MulleBase64</title>
<path fill="none" stroke="black" d="M1853.68,-143.88C1867.54,-134.81 1884.74,-123.55 1899.71,-113.76"/>
<polygon fill="black" stroke="black" points="1901.77,-116.59 1908.22,-108.19 1897.94,-110.74 1901.77,-116.59"/>
</g>
<!-- mulle&#45;http -->
<g id="node19" class="node">
<title>mulle&#45;http</title>
<polygon fill="lightgrey" stroke="black" points="2105,-108 2014,-108 2014,-72 2105,-72 2105,-108"/>
<text text-anchor="middle" x="2059.5" y="-86.3" font-family="Times,serif" font-size="14.00">mulle&#45;http</text>
</g>
<!-- MulleObjCHTTPFoundation&#45;&gt;mulle&#45;http -->
<g id="edge18" class="edge">
<title>MulleObjCHTTPFoundation&#45;&gt;mulle&#45;http</title>
<path fill="none" stroke="black" d="M2059.5,-143.7C2059.5,-135.98 2059.5,-126.71 2059.5,-118.11"/>
<polygon fill="black" stroke="black" points="2063,-118.1 2059.5,-108.1 2056,-118.1 2063,-118.1"/>
</g>
<!-- MulleObjCInetFoundation -->
<g id="node20" class="node">
<title>MulleObjCInetFoundation</title>
<polygon fill="lightgrey" stroke="black" points="2395,-108 2194,-108 2194,-72 2395,-72 2395,-108"/>
<text text-anchor="middle" x="2294.5" y="-86.3" font-family="Times,serif" font-size="14.00">MulleObjCInetFoundation</text>
</g>
<!-- MulleObjCInetOSFoundation&#45;&gt;MulleObjCInetFoundation -->
<g id="edge20" class="edge">
<title>MulleObjCInetOSFoundation&#45;&gt;MulleObjCInetFoundation</title>
<path fill="none" stroke="black" d="M2294.5,-143.7C2294.5,-135.98 2294.5,-126.71 2294.5,-118.11"/>
<polygon fill="black" stroke="black" points="2298,-118.1 2294.5,-108.1 2291,-118.1 2298,-118.1"/>
</g>
<!-- src/BSD -->
<g id="node22" class="node">
<title>src/BSD</title>
<polygon fill="lightgrey" stroke="black" points="1003.5,-36 929.5,-36 929.5,0 1003.5,0 1003.5,-36"/>
<text text-anchor="middle" x="966.5" y="-14.3" font-family="Times,serif" font-size="14.00">src/BSD</text>
</g>
<!-- MulleObjCOSFoundation&#45;&gt;src/BSD -->
<g id="edge21" class="edge">
<title>MulleObjCOSFoundation&#45;&gt;src/BSD</title>
<path fill="none" stroke="black" d="M1204.29,-73.02C1139.81,-62.1 1060.07,-47.88 1013.67,-36.02"/>
<polygon fill="black" stroke="black" points="1014.29,-32.57 1003.73,-33.37 1012.49,-39.33 1014.29,-32.57"/>
</g>
<!-- src/Darwin -->
<g id="node23" class="node">
<title>src/Darwin</title>
<polygon fill="lightgrey" stroke="black" points="1117,-36 1022,-36 1022,0 1117,0 1117,-36"/>
<text text-anchor="middle" x="1069.5" y="-14.3" font-family="Times,serif" font-size="14.00">src/Darwin</text>
</g>
<!-- MulleObjCOSFoundation&#45;&gt;src/Darwin -->
<g id="edge22" class="edge">
<title>MulleObjCOSFoundation&#45;&gt;src/Darwin</title>
<path fill="none" stroke="black" d="M1244.82,-71.97C1212.68,-62.3 1171.46,-49.89 1126.99,-36.45"/>
<polygon fill="black" stroke="black" points="1127.74,-33.02 1117.16,-33.48 1125.72,-39.72 1127.74,-33.02"/>
</g>
<!-- src/FreeBSD -->
<g id="node24" class="node">
<title>src/FreeBSD</title>
<polygon fill="lightgrey" stroke="black" points="1242,-36 1135,-36 1135,0 1242,0 1242,-36"/>
<text text-anchor="middle" x="1188.5" y="-14.3" font-family="Times,serif" font-size="14.00">src/FreeBSD</text>
</g>
<!-- MulleObjCOSFoundation&#45;&gt;src/FreeBSD -->
<g id="edge23" class="edge">
<title>MulleObjCOSFoundation&#45;&gt;src/FreeBSD</title>
<path fill="none" stroke="black" d="M1273.86,-71.88C1259.08,-62.72 1240.71,-51.34 1224.8,-41.48"/>
<polygon fill="black" stroke="black" points="1226.59,-38.48 1216.25,-36.19 1222.91,-44.43 1226.59,-38.48"/>
</g>
<!-- src/Linux -->
<g id="node25" class="node">
<title>src/Linux</title>
<polygon fill="lightgrey" stroke="black" points="1343,-36 1260,-36 1260,0 1343,0 1343,-36"/>
<text text-anchor="middle" x="1301.5" y="-14.3" font-family="Times,serif" font-size="14.00">src/Linux</text>
</g>
<!-- MulleObjCOSFoundation&#45;&gt;src/Linux -->
<g id="edge24" class="edge">
<title>MulleObjCOSFoundation&#45;&gt;src/Linux</title>
<path fill="none" stroke="black" d="M1301.5,-71.7C1301.5,-63.98 1301.5,-54.71 1301.5,-46.11"/>
<polygon fill="black" stroke="black" points="1305,-46.1 1301.5,-36.1 1298,-46.1 1305,-46.1"/>
</g>
<!-- src/OSBase -->
<g id="node26" class="node">
<title>src/OSBase</title>
<polygon fill="lightgrey" stroke="black" points="1459.5,-36 1361.5,-36 1361.5,0 1459.5,0 1459.5,-36"/>
<text text-anchor="middle" x="1410.5" y="-14.3" font-family="Times,serif" font-size="14.00">src/OSBase</text>
</g>
<!-- MulleObjCOSFoundation&#45;&gt;src/OSBase -->
<g id="edge25" class="edge">
<title>MulleObjCOSFoundation&#45;&gt;src/OSBase</title>
<path fill="none" stroke="black" d="M1328.16,-71.88C1342.28,-62.81 1359.81,-51.55 1375.06,-41.76"/>
<polygon fill="black" stroke="black" points="1377.21,-44.54 1383.73,-36.19 1373.43,-38.65 1377.21,-44.54"/>
</g>
<!-- src/Posix -->
<g id="node27" class="node">
<title>src/Posix</title>
<polygon fill="lightgrey" stroke="black" points="1557.5,-36 1477.5,-36 1477.5,0 1557.5,0 1557.5,-36"/>
<text text-anchor="middle" x="1517.5" y="-14.3" font-family="Times,serif" font-size="14.00">src/Posix</text>
</g>
<!-- MulleObjCOSFoundation&#45;&gt;src/Posix -->
<g id="edge26" class="edge">
<title>MulleObjCOSFoundation&#45;&gt;src/Posix</title>
<path fill="none" stroke="black" d="M1356.53,-71.94C1386.85,-62.45 1425.39,-50.23 1467.74,-36.21"/>
<polygon fill="black" stroke="black" points="1469.03,-39.47 1477.42,-33 1466.82,-32.83 1469.03,-39.47"/>
</g>
<!-- src/Windows -->
<g id="node28" class="node">
<title>src/Windows</title>
<polygon fill="lightgrey" stroke="black" points="1683,-36 1576,-36 1576,0 1683,0 1683,-36"/>
<text text-anchor="middle" x="1629.5" y="-14.3" font-family="Times,serif" font-size="14.00">src/Windows</text>
</g>
<!-- MulleObjCOSFoundation&#45;&gt;src/Windows -->
<g id="edge27" class="edge">
<title>MulleObjCOSFoundation&#45;&gt;src/Windows</title>
<path fill="none" stroke="black" d="M1394.42,-71.98C1442.81,-62.74 1503.14,-50.65 1565.86,-36.07"/>
<polygon fill="black" stroke="black" points="1567.01,-39.4 1575.94,-33.71 1565.41,-32.58 1567.01,-39.4"/>
</g>
<!-- mulle&#45;url -->
<g id="node21" class="node">
<title>mulle&#45;url</title>
<polygon fill="lightgrey" stroke="black" points="2335,-36 2254,-36 2254,0 2335,0 2335,-36"/>
<text text-anchor="middle" x="2294.5" y="-14.3" font-family="Times,serif" font-size="14.00">mulle&#45;url</text>
</g>
<!-- MulleObjCInetFoundation&#45;&gt;mulle&#45;url -->
<g id="edge19" class="edge">
<title>MulleObjCInetFoundation&#45;&gt;mulle&#45;url</title>
<path fill="none" stroke="black" d="M2294.5,-71.7C2294.5,-63.98 2294.5,-54.71 2294.5,-46.11"/>
<polygon fill="black" stroke="black" points="2298,-46.1 2294.5,-36.1 2291,-46.1 2298,-46.1"/>
</g>
</g>
</svg>
