<?xml version="1.0" encoding="UTF-8" standalone="no"?>
<!DOCTYPE svg PUBLIC "-//W3C//DTD SVG 1.1//EN"
 "http://www.w3.org/Graphics/SVG/1.1/DTD/svg11.dtd">
<!-- Generated by graphviz version 2.43.0 (0)
 -->
<!-- Title: sourcetree Pages: 1 -->
<svg width="1135pt" height="116pt"
 viewBox="0.00 0.00 1135.00 116.00" xmlns="http://www.w3.org/2000/svg" xmlns:xlink="http://www.w3.org/1999/xlink">
<g id="graph0" class="graph" transform="scale(1 1) rotate(0) translate(4 112)">
<title>sourcetree</title>
<polygon fill="white" stroke="transparent" points="-4,4 -4,-112 1131,-112 1131,4 -4,4"/>
<!-- Foundation -->
<g id="node1" class="node">
<title>Foundation</title>
<polygon fill="yellow" stroke="black" points="592,-108 495,-108 495,-72 592,-72 592,-108"/>
<text text-anchor="middle" x="543.5" y="-86.3" font-family="Times,serif" font-size="14.00">Foundation</text>
</g>
<!-- MulleFoundation -->
<g id="node2" class="node">
<title>MulleFoundation</title>
<g id="a_node2"><a xlink:href="https://github.com/MulleFoundation/MulleFoundation" xlink:title="MulleFoundation">
<polygon fill="lightgrey" stroke="black" points="137,-36 0,-36 0,0 137,0 137,-36"/>
<text text-anchor="middle" x="68.5" y="-14.3" font-family="Times,serif" font-size="14.00">MulleFoundation</text>
</a>
</g>
</g>
<!-- Foundation&#45;&gt;MulleFoundation -->
<g id="edge1" class="edge">
<title>Foundation&#45;&gt;MulleFoundation</title>
<path fill="none" stroke="black" d="M494.9,-83.87C421.61,-75.85 278.29,-59.01 147.49,-36.28"/>
<polygon fill="black" stroke="black" points="147.74,-32.77 137.29,-34.49 146.53,-39.67 147.74,-32.77"/>
</g>
<!-- mulle&#45;objc&#45;compat -->
<g id="node3" class="node">
<title>mulle&#45;objc&#45;compat</title>
<g id="a_node3"><a xlink:href="https://github.com/mulle-objc/mulle-objc-compat" xlink:title="mulle&#45;objc&#45;compat">
<polygon fill="lightgrey" stroke="black" points="302,-36 155,-36 155,0 302,0 302,-36"/>
<text text-anchor="middle" x="228.5" y="-14.3" font-family="Times,serif" font-size="14.00">mulle&#45;objc&#45;compat</text>
</a>
</g>
</g>
<!-- Foundation&#45;&gt;mulle&#45;objc&#45;compat -->
<g id="edge2" class="edge">
<title>Foundation&#45;&gt;mulle&#45;objc&#45;compat</title>
<path fill="none" stroke="black" d="M494.97,-78.22C446.36,-67.41 370.57,-50.57 312.23,-37.61"/>
<polygon fill="black" stroke="black" points="312.81,-34.15 302.29,-35.4 311.29,-40.98 312.81,-34.15"/>
</g>
<!-- MulleObjCExpatFoundation -->
<g id="node4" class="node">
<title>MulleObjCExpatFoundation</title>
<g id="a_node4"><a xlink:href="https://github.com/MulleFoundation/MulleObjCExpatFoundation" xlink:title="MulleObjCExpatFoundation">
<polygon fill="lightgrey" stroke="black" points="535,-36 320,-36 320,0 535,0 535,-36"/>
<text text-anchor="middle" x="427.5" y="-14.3" font-family="Times,serif" font-size="14.00">MulleObjCExpatFoundation</text>
</a>
</g>
</g>
<!-- Foundation&#45;&gt;MulleObjCExpatFoundation -->
<g id="edge3" class="edge">
<title>Foundation&#45;&gt;MulleObjCExpatFoundation</title>
<path fill="none" stroke="black" d="M515.12,-71.88C499.96,-62.72 481.09,-51.34 464.76,-41.48"/>
<polygon fill="black" stroke="black" points="466.36,-38.36 455.99,-36.19 462.74,-44.35 466.36,-38.36"/>
</g>
<!-- MulleObjCHTTPFoundation -->
<g id="node5" class="node">
<title>MulleObjCHTTPFoundation</title>
<g id="a_node5"><a xlink:href="https://github.com/MulleWeb/MulleObjCHTTPFoundation" xlink:title="MulleObjCHTTPFoundation">
<polygon fill="lightgrey" stroke="black" points="766,-36 553,-36 553,0 766,0 766,-36"/>
<text text-anchor="middle" x="659.5" y="-14.3" font-family="Times,serif" font-size="14.00">MulleObjCHTTPFoundation</text>
</a>
</g>
</g>
<!-- Foundation&#45;&gt;MulleObjCHTTPFoundation -->
<g id="edge4" class="edge">
<title>Foundation&#45;&gt;MulleObjCHTTPFoundation</title>
<path fill="none" stroke="black" d="M571.88,-71.88C587.04,-62.72 605.91,-51.34 622.24,-41.48"/>
<polygon fill="black" stroke="black" points="624.26,-44.35 631.01,-36.19 620.64,-38.36 624.26,-44.35"/>
</g>
<!-- MulleObjCInetOSFoundation -->
<g id="node6" class="node">
<title>MulleObjCInetOSFoundation</title>
<g id="a_node6"><a xlink:href="https://github.com/MulleFoundation/MulleObjCInetOSFoundation" xlink:title="MulleObjCInetOSFoundation">
<polygon fill="lightgrey" stroke="black" points="1005.5,-36 783.5,-36 783.5,0 1005.5,0 1005.5,-36"/>
<text text-anchor="middle" x="894.5" y="-14.3" font-family="Times,serif" font-size="14.00">MulleObjCInetOSFoundation</text>
</a>
</g>
</g>
<!-- Foundation&#45;&gt;MulleObjCInetOSFoundation -->
<g id="edge5" class="edge">
<title>Foundation&#45;&gt;MulleObjCInetOSFoundation</title>
<path fill="none" stroke="black" d="M592.31,-79.27C645.52,-68.65 732.01,-51.41 798.85,-38.07"/>
<polygon fill="black" stroke="black" points="799.86,-41.44 808.99,-36.05 798.5,-34.58 799.86,-41.44"/>
</g>
<!-- objc&#45;compat -->
<g id="node7" class="node">
<title>objc&#45;compat</title>
<g id="a_node7"><a xlink:href="https://github.com/MulleFoundation/objc-compat" xlink:title="objc&#45;compat">
<polygon fill="lightgrey" stroke="black" points="1127,-36 1024,-36 1024,0 1127,0 1127,-36"/>
<text text-anchor="middle" x="1075.5" y="-14.3" font-family="Times,serif" font-size="14.00">objc&#45;compat</text>
</a>
</g>
</g>
<!-- Foundation&#45;&gt;objc&#45;compat -->
<g id="edge6" class="edge">
<title>Foundation&#45;&gt;objc&#45;compat</title>
<path fill="none" stroke="black" d="M592.03,-86.11C676.11,-80.53 854.33,-66.27 1013.73,-35.96"/>
<polygon fill="black" stroke="black" points="1014.56,-39.37 1023.72,-34.04 1013.24,-32.49 1014.56,-39.37"/>
</g>
</g>
</svg>
