<?xml version="1.0" encoding="UTF-8" standalone="no"?>
<!DOCTYPE svg PUBLIC "-//W3C//DTD SVG 1.1//EN"
 "http://www.w3.org/Graphics/SVG/1.1/DTD/svg11.dtd">
<!-- Generated by graphviz version 2.43.0 (0)
 -->
<!-- Title: sourcetree Pages: 1 -->
<svg width="2535pt" height="476pt"
 viewBox="0.00 0.00 2535.00 476.00" xmlns="http://www.w3.org/2000/svg" xmlns:xlink="http://www.w3.org/1999/xlink">
<g id="graph0" class="graph" transform="scale(1 1) rotate(0) translate(4 472)">
<title>sourcetree</title>
<polygon fill="white" stroke="transparent" points="-4,4 -4,-472 2531,-472 2531,4 -4,4"/>
<!-- Foundation -->
<g id="node1" class="node">
<title>Foundation</title>
<polygon fill="yellow" stroke="black" points="1992,-468 1895,-468 1895,-432 1992,-432 1992,-468"/>
<text text-anchor="middle" x="1943.5" y="-446.3" font-family="Times,serif" font-size="14.00">Foundation</text>
</g>
<!-- MulleFoundation -->
<g id="node2" class="node">
<title>MulleFoundation</title>
<polygon fill="lightgrey" stroke="black" points="1038,-396 901,-396 901,-360 1038,-360 1038,-396"/>
<text text-anchor="middle" x="969.5" y="-374.3" font-family="Times,serif" font-size="14.00">MulleFoundation</text>
</g>
<!-- Foundation&#45;&gt;MulleFoundation -->
<g id="edge1" class="edge">
<title>Foundation&#45;&gt;MulleFoundation</title>
<path fill="none" stroke="black" d="M1894.87,-445.5C1737.6,-434.2 1241.8,-398.57 1048.12,-384.65"/>
<polygon fill="black" stroke="black" points="1048.24,-381.15 1038.01,-383.92 1047.74,-388.13 1048.24,-381.15"/>
</g>
<!-- mulle&#45;objc&#45;compat -->
<g id="node3" class="node">
<title>mulle&#45;objc&#45;compat</title>
<polygon fill="lightgrey" stroke="black" points="1702,-396 1555,-396 1555,-360 1702,-360 1702,-396"/>
<text text-anchor="middle" x="1628.5" y="-374.3" font-family="Times,serif" font-size="14.00">mulle&#45;objc&#45;compat</text>
</g>
<!-- Foundation&#45;&gt;mulle&#45;objc&#45;compat -->
<g id="edge2" class="edge">
<title>Foundation&#45;&gt;mulle&#45;objc&#45;compat</title>
<path fill="none" stroke="black" d="M1894.97,-438.22C1846.36,-427.41 1770.57,-410.57 1712.23,-397.61"/>
<polygon fill="black" stroke="black" points="1712.81,-394.15 1702.29,-395.4 1711.29,-400.98 1712.81,-394.15"/>
</g>
<!-- MulleObjCExpatFoundation -->
<g id="node4" class="node">
<title>MulleObjCExpatFoundation</title>
<polygon fill="lightgrey" stroke="black" points="1935,-396 1720,-396 1720,-360 1935,-360 1935,-396"/>
<text text-anchor="middle" x="1827.5" y="-374.3" font-family="Times,serif" font-size="14.00">MulleObjCExpatFoundation</text>
</g>
<!-- Foundation&#45;&gt;MulleObjCExpatFoundation -->
<g id="edge3" class="edge">
<title>Foundation&#45;&gt;MulleObjCExpatFoundation</title>
<path fill="none" stroke="black" d="M1915.12,-431.88C1899.96,-422.72 1881.09,-411.34 1864.76,-401.48"/>
<polygon fill="black" stroke="black" points="1866.36,-398.36 1855.99,-396.19 1862.74,-404.35 1866.36,-398.36"/>
</g>
<!-- MulleObjCHTTPFoundation -->
<g id="node5" class="node">
<title>MulleObjCHTTPFoundation</title>
<polygon fill="lightgrey" stroke="black" points="2166,-396 1953,-396 1953,-360 2166,-360 2166,-396"/>
<text text-anchor="middle" x="2059.5" y="-374.3" font-family="Times,serif" font-size="14.00">MulleObjCHTTPFoundation</text>
</g>
<!-- Foundation&#45;&gt;MulleObjCHTTPFoundation -->
<g id="edge4" class="edge">
<title>Foundation&#45;&gt;MulleObjCHTTPFoundation</title>
<path fill="none" stroke="black" d="M1971.88,-431.88C1987.04,-422.72 2005.91,-411.34 2022.24,-401.48"/>
<polygon fill="black" stroke="black" points="2024.26,-404.35 2031.01,-396.19 2020.64,-398.36 2024.26,-404.35"/>
</g>
<!-- MulleObjCInetOSFoundation -->
<g id="node6" class="node">
<title>MulleObjCInetOSFoundation</title>
<polygon fill="lightgrey" stroke="black" points="2405.5,-396 2183.5,-396 2183.5,-360 2405.5,-360 2405.5,-396"/>
<text text-anchor="middle" x="2294.5" y="-374.3" font-family="Times,serif" font-size="14.00">MulleObjCInetOSFoundation</text>
</g>
<!-- Foundation&#45;&gt;MulleObjCInetOSFoundation -->
<g id="edge5" class="edge">
<title>Foundation&#45;&gt;MulleObjCInetOSFoundation</title>
<path fill="none" stroke="black" d="M1992.31,-439.27C2045.52,-428.65 2132.01,-411.41 2198.85,-398.07"/>
<polygon fill="black" stroke="black" points="2199.86,-401.44 2208.99,-396.05 2198.5,-394.58 2199.86,-401.44"/>
</g>
<!-- objc&#45;compat -->
<g id="node7" class="node">
<title>objc&#45;compat</title>
<polygon fill="lightgrey" stroke="black" points="2527,-396 2424,-396 2424,-360 2527,-360 2527,-396"/>
<text text-anchor="middle" x="2475.5" y="-374.3" font-family="Times,serif" font-size="14.00">objc&#45;compat</text>
</g>
<!-- Foundation&#45;&gt;objc&#45;compat -->
<g id="edge6" class="edge">
<title>Foundation&#45;&gt;objc&#45;compat</title>
<path fill="none" stroke="black" d="M1992.03,-446.11C2076.11,-440.53 2254.33,-426.27 2413.73,-395.96"/>
<polygon fill="black" stroke="black" points="2414.56,-399.37 2423.72,-394.04 2413.24,-392.49 2414.56,-399.37"/>
</g>
<!-- MulleObjCArchiverFoundation -->
<g id="node8" class="node">
<title>MulleObjCArchiverFoundation</title>
<polygon fill="lightgrey" stroke="black" points="233,-324 0,-324 0,-288 233,-288 233,-324"/>
<text text-anchor="middle" x="116.5" y="-302.3" font-family="Times,serif" font-size="14.00">MulleObjCArchiverFoundation</text>
</g>
<!-- MulleFoundation&#45;&gt;MulleObjCArchiverFoundation -->
<g id="edge7" class="edge">
<title>MulleFoundation&#45;&gt;MulleObjCArchiverFoundation</title>
<path fill="none" stroke="black" d="M900.87,-373.44C773.39,-366.51 491.19,-349.69 243.52,-324.18"/>
<polygon fill="black" stroke="black" points="243.55,-320.66 233.24,-323.11 242.83,-327.62 243.55,-320.66"/>
</g>
<!-- MulleObjCCalendarFoundation -->
<g id="node9" class="node">
<title>MulleObjCCalendarFoundation</title>
<polygon fill="lightgrey" stroke="black" points="488,-324 251,-324 251,-288 488,-288 488,-324"/>
<text text-anchor="middle" x="369.5" y="-302.3" font-family="Times,serif" font-size="14.00">MulleObjCCalendarFoundation</text>
</g>
<!-- MulleFoundation&#45;&gt;MulleObjCCalendarFoundation -->
<g id="edge8" class="edge">
<title>MulleFoundation&#45;&gt;MulleObjCCalendarFoundation</title>
<path fill="none" stroke="black" d="M900.66,-369.71C810.77,-360.09 648.24,-342.37 498.35,-324.09"/>
<polygon fill="black" stroke="black" points="498.39,-320.57 488.04,-322.83 497.54,-327.52 498.39,-320.57"/>
</g>
<!-- MulleObjCDecimalFoundation -->
<g id="node10" class="node">
<title>MulleObjCDecimalFoundation</title>
<polygon fill="lightgrey" stroke="black" points="736.5,-324 506.5,-324 506.5,-288 736.5,-288 736.5,-324"/>
<text text-anchor="middle" x="621.5" y="-302.3" font-family="Times,serif" font-size="14.00">MulleObjCDecimalFoundation</text>
</g>
<!-- MulleFoundation&#45;&gt;MulleObjCDecimalFoundation -->
<g id="edge9" class="edge">
<title>MulleFoundation&#45;&gt;MulleObjCDecimalFoundation</title>
<path fill="none" stroke="black" d="M900.75,-363.17C847.94,-352.55 774.42,-337.76 716.08,-326.02"/>
<polygon fill="black" stroke="black" points="716.6,-322.56 706.11,-324.02 715.22,-329.42 716.6,-322.56"/>
</g>
<!-- MulleObjCKVCFoundation -->
<g id="node11" class="node">
<title>MulleObjCKVCFoundation</title>
<polygon fill="lightgrey" stroke="black" points="958,-324 755,-324 755,-288 958,-288 958,-324"/>
<text text-anchor="middle" x="856.5" y="-302.3" font-family="Times,serif" font-size="14.00">MulleObjCKVCFoundation</text>
</g>
<!-- MulleFoundation&#45;&gt;MulleObjCKVCFoundation -->
<g id="edge10" class="edge">
<title>MulleFoundation&#45;&gt;MulleObjCKVCFoundation</title>
<path fill="none" stroke="black" d="M941.86,-359.88C927.08,-350.72 908.71,-339.34 892.8,-329.48"/>
<polygon fill="black" stroke="black" points="894.59,-326.48 884.25,-324.19 890.91,-332.43 894.59,-326.48"/>
</g>
<!-- MulleObjCMathFoundation -->
<g id="node12" class="node">
<title>MulleObjCMathFoundation</title>
<polygon fill="lightgrey" stroke="black" points="1186.5,-324 976.5,-324 976.5,-288 1186.5,-288 1186.5,-324"/>
<text text-anchor="middle" x="1081.5" y="-302.3" font-family="Times,serif" font-size="14.00">MulleObjCMathFoundation</text>
</g>
<!-- MulleFoundation&#45;&gt;MulleObjCMathFoundation -->
<g id="edge11" class="edge">
<title>MulleFoundation&#45;&gt;MulleObjCMathFoundation</title>
<path fill="none" stroke="black" d="M996.9,-359.88C1011.41,-350.81 1029.42,-339.55 1045.09,-329.76"/>
<polygon fill="black" stroke="black" points="1047.37,-332.46 1054,-324.19 1043.66,-326.52 1047.37,-332.46"/>
</g>
<!-- MulleObjCOSFoundation -->
<g id="node13" class="node">
<title>MulleObjCOSFoundation</title>
<polygon fill="lightgrey" stroke="black" points="1398.5,-324 1204.5,-324 1204.5,-288 1398.5,-288 1398.5,-324"/>
<text text-anchor="middle" x="1301.5" y="-302.3" font-family="Times,serif" font-size="14.00">MulleObjCOSFoundation</text>
</g>
<!-- MulleFoundation&#45;&gt;MulleObjCOSFoundation -->
<g id="edge12" class="edge">
<title>MulleFoundation&#45;&gt;MulleObjCOSFoundation</title>
<path fill="none" stroke="black" d="M1038.29,-362.5C1088.27,-351.96 1156.39,-337.6 1210.81,-326.12"/>
<polygon fill="black" stroke="black" points="1211.74,-329.5 1220.81,-324.01 1210.3,-322.65 1211.74,-329.5"/>
</g>
<!-- MulleObjCUnicodeFoundation -->
<g id="node14" class="node">
<title>MulleObjCUnicodeFoundation</title>
<polygon fill="lightgrey" stroke="black" points="1647,-324 1416,-324 1416,-288 1647,-288 1647,-324"/>
<text text-anchor="middle" x="1531.5" y="-302.3" font-family="Times,serif" font-size="14.00">MulleObjCUnicodeFoundation</text>
</g>
<!-- MulleFoundation&#45;&gt;MulleObjCUnicodeFoundation -->
<g id="edge13" class="edge">
<title>MulleFoundation&#45;&gt;MulleObjCUnicodeFoundation</title>
<path fill="none" stroke="black" d="M1038.2,-369.03C1122.37,-359.18 1269.62,-341.72 1405.8,-324.21"/>
<polygon fill="black" stroke="black" points="1406.53,-327.64 1416,-322.9 1405.63,-320.7 1406.53,-327.64"/>
</g>
<!-- craftinfo/expat -->
<g id="node15" class="node">
<title>craftinfo/expat</title>
<polygon fill="lightgrey" stroke="black" points="1787.5,-324 1665.5,-324 1665.5,-288 1787.5,-288 1787.5,-324"/>
<text text-anchor="middle" x="1726.5" y="-302.3" font-family="Times,serif" font-size="14.00">craftinfo/expat</text>
</g>
<!-- MulleObjCExpatFoundation&#45;&gt;craftinfo/expat -->
<g id="edge14" class="edge">
<title>MulleObjCExpatFoundation&#45;&gt;craftinfo/expat</title>
<path fill="none" stroke="black" d="M1802.79,-359.88C1789.83,-350.89 1773.77,-339.76 1759.73,-330.03"/>
<polygon fill="black" stroke="black" points="1761.52,-327.01 1751.3,-324.19 1757.53,-332.76 1761.52,-327.01"/>
</g>
<!-- expat -->
<g id="node16" class="node">
<title>expat</title>
<polygon fill="lightgrey" stroke="black" points="1861.5,-324 1805.5,-324 1805.5,-288 1861.5,-288 1861.5,-324"/>
<text text-anchor="middle" x="1833.5" y="-302.3" font-family="Times,serif" font-size="14.00">expat</text>
</g>
<!-- MulleObjCExpatFoundation&#45;&gt;expat -->
<g id="edge15" class="edge">
<title>MulleObjCExpatFoundation&#45;&gt;expat</title>
<path fill="none" stroke="black" d="M1828.98,-359.7C1829.64,-351.98 1830.44,-342.71 1831.18,-334.11"/>
<polygon fill="black" stroke="black" points="1834.67,-334.37 1832.03,-324.1 1827.69,-333.77 1834.67,-334.37"/>
</g>
<!-- MulleBase64 -->
<g id="node17" class="node">
<title>MulleBase64</title>
<polygon fill="lightgrey" stroke="black" points="1989.5,-324 1879.5,-324 1879.5,-288 1989.5,-288 1989.5,-324"/>
<text text-anchor="middle" x="1934.5" y="-302.3" font-family="Times,serif" font-size="14.00">MulleBase64</text>
</g>
<!-- MulleObjCExpatFoundation&#45;&gt;MulleBase64 -->
<g id="edge16" class="edge">
<title>MulleObjCExpatFoundation&#45;&gt;MulleBase64</title>
<path fill="none" stroke="black" d="M1853.68,-359.88C1867.54,-350.81 1884.74,-339.55 1899.71,-329.76"/>
<polygon fill="black" stroke="black" points="1901.77,-332.59 1908.22,-324.19 1897.94,-326.74 1901.77,-332.59"/>
</g>
<!-- mulle&#45;http -->
<g id="node18" class="node">
<title>mulle&#45;http</title>
<polygon fill="lightgrey" stroke="black" points="2105,-324 2014,-324 2014,-288 2105,-288 2105,-324"/>
<text text-anchor="middle" x="2059.5" y="-302.3" font-family="Times,serif" font-size="14.00">mulle&#45;http</text>
</g>
<!-- MulleObjCHTTPFoundation&#45;&gt;mulle&#45;http -->
<g id="edge17" class="edge">
<title>MulleObjCHTTPFoundation&#45;&gt;mulle&#45;http</title>
<path fill="none" stroke="black" d="M2059.5,-359.7C2059.5,-351.98 2059.5,-342.71 2059.5,-334.11"/>
<polygon fill="black" stroke="black" points="2063,-334.1 2059.5,-324.1 2056,-334.1 2063,-334.1"/>
</g>
<!-- MulleObjCInetFoundation -->
<g id="node19" class="node">
<title>MulleObjCInetFoundation</title>
<polygon fill="lightgrey" stroke="black" points="2395,-324 2194,-324 2194,-288 2395,-288 2395,-324"/>
<text text-anchor="middle" x="2294.5" y="-302.3" font-family="Times,serif" font-size="14.00">MulleObjCInetFoundation</text>
</g>
<!-- MulleObjCInetOSFoundation&#45;&gt;MulleObjCInetFoundation -->
<g id="edge19" class="edge">
<title>MulleObjCInetOSFoundation&#45;&gt;MulleObjCInetFoundation</title>
<path fill="none" stroke="black" d="M2294.5,-359.7C2294.5,-351.98 2294.5,-342.71 2294.5,-334.11"/>
<polygon fill="black" stroke="black" points="2298,-334.1 2294.5,-324.1 2291,-334.1 2298,-334.1"/>
</g>
<!-- src/BSD -->
<g id="node21" class="node">
<title>src/BSD</title>
<polygon fill="lightgrey" stroke="black" points="1003.5,-252 929.5,-252 929.5,-216 1003.5,-216 1003.5,-252"/>
<text text-anchor="middle" x="966.5" y="-230.3" font-family="Times,serif" font-size="14.00">src/BSD</text>
</g>
<!-- MulleObjCOSFoundation&#45;&gt;src/BSD -->
<g id="edge20" class="edge">
<title>MulleObjCOSFoundation&#45;&gt;src/BSD</title>
<path fill="none" stroke="black" d="M1204.29,-289.02C1139.81,-278.1 1060.07,-263.88 1013.67,-252.02"/>
<polygon fill="black" stroke="black" points="1014.29,-248.57 1003.73,-249.37 1012.49,-255.33 1014.29,-248.57"/>
</g>
<!-- src/Darwin -->
<g id="node22" class="node">
<title>src/Darwin</title>
<polygon fill="lightgrey" stroke="black" points="1117,-252 1022,-252 1022,-216 1117,-216 1117,-252"/>
<text text-anchor="middle" x="1069.5" y="-230.3" font-family="Times,serif" font-size="14.00">src/Darwin</text>
</g>
<!-- MulleObjCOSFoundation&#45;&gt;src/Darwin -->
<g id="edge21" class="edge">
<title>MulleObjCOSFoundation&#45;&gt;src/Darwin</title>
<path fill="none" stroke="black" d="M1244.82,-287.97C1212.68,-278.3 1171.46,-265.89 1126.99,-252.45"/>
<polygon fill="black" stroke="black" points="1127.74,-249.02 1117.16,-249.48 1125.72,-255.72 1127.74,-249.02"/>
</g>
<!-- src/FreeBSD -->
<g id="node23" class="node">
<title>src/FreeBSD</title>
<polygon fill="lightgrey" stroke="black" points="1242,-252 1135,-252 1135,-216 1242,-216 1242,-252"/>
<text text-anchor="middle" x="1188.5" y="-230.3" font-family="Times,serif" font-size="14.00">src/FreeBSD</text>
</g>
<!-- MulleObjCOSFoundation&#45;&gt;src/FreeBSD -->
<g id="edge22" class="edge">
<title>MulleObjCOSFoundation&#45;&gt;src/FreeBSD</title>
<path fill="none" stroke="black" d="M1273.86,-287.88C1259.08,-278.72 1240.71,-267.34 1224.8,-257.48"/>
<polygon fill="black" stroke="black" points="1226.59,-254.48 1216.25,-252.19 1222.91,-260.43 1226.59,-254.48"/>
</g>
<!-- src/Linux -->
<g id="node24" class="node">
<title>src/Linux</title>
<polygon fill="lightgrey" stroke="black" points="1343,-252 1260,-252 1260,-216 1343,-216 1343,-252"/>
<text text-anchor="middle" x="1301.5" y="-230.3" font-family="Times,serif" font-size="14.00">src/Linux</text>
</g>
<!-- MulleObjCOSFoundation&#45;&gt;src/Linux -->
<g id="edge23" class="edge">
<title>MulleObjCOSFoundation&#45;&gt;src/Linux</title>
<path fill="none" stroke="black" d="M1301.5,-287.7C1301.5,-279.98 1301.5,-270.71 1301.5,-262.11"/>
<polygon fill="black" stroke="black" points="1305,-262.1 1301.5,-252.1 1298,-262.1 1305,-262.1"/>
</g>
<!-- src/OSBase -->
<g id="node25" class="node">
<title>src/OSBase</title>
<polygon fill="lightgrey" stroke="black" points="1459.5,-252 1361.5,-252 1361.5,-216 1459.5,-216 1459.5,-252"/>
<text text-anchor="middle" x="1410.5" y="-230.3" font-family="Times,serif" font-size="14.00">src/OSBase</text>
</g>
<!-- MulleObjCOSFoundation&#45;&gt;src/OSBase -->
<g id="edge24" class="edge">
<title>MulleObjCOSFoundation&#45;&gt;src/OSBase</title>
<path fill="none" stroke="black" d="M1328.16,-287.88C1342.28,-278.81 1359.81,-267.55 1375.06,-257.76"/>
<polygon fill="black" stroke="black" points="1377.21,-260.54 1383.73,-252.19 1373.43,-254.65 1377.21,-260.54"/>
</g>
<!-- src/Posix -->
<g id="node26" class="node">
<title>src/Posix</title>
<polygon fill="lightgrey" stroke="black" points="1557.5,-252 1477.5,-252 1477.5,-216 1557.5,-216 1557.5,-252"/>
<text text-anchor="middle" x="1517.5" y="-230.3" font-family="Times,serif" font-size="14.00">src/Posix</text>
</g>
<!-- MulleObjCOSFoundation&#45;&gt;src/Posix -->
<g id="edge25" class="edge">
<title>MulleObjCOSFoundation&#45;&gt;src/Posix</title>
<path fill="none" stroke="black" d="M1356.53,-287.94C1386.85,-278.45 1425.39,-266.23 1467.74,-252.21"/>
<polygon fill="black" stroke="black" points="1469.03,-255.47 1477.42,-249 1466.82,-248.83 1469.03,-255.47"/>
</g>
<!-- src/Windows -->
<g id="node27" class="node">
<title>src/Windows</title>
<polygon fill="lightgrey" stroke="black" points="1683,-252 1576,-252 1576,-216 1683,-216 1683,-252"/>
<text text-anchor="middle" x="1629.5" y="-230.3" font-family="Times,serif" font-size="14.00">src/Windows</text>
</g>
<!-- MulleObjCOSFoundation&#45;&gt;src/Windows -->
<g id="edge26" class="edge">
<title>MulleObjCOSFoundation&#45;&gt;src/Windows</title>
<path fill="none" stroke="black" d="M1394.42,-287.98C1442.81,-278.74 1503.14,-266.65 1565.86,-252.07"/>
<polygon fill="black" stroke="black" points="1567.01,-255.4 1575.94,-249.71 1565.41,-248.58 1567.01,-255.4"/>
</g>
<!-- mulle&#45;url -->
<g id="node20" class="node">
<title>mulle&#45;url</title>
<polygon fill="lightgrey" stroke="black" points="2335,-252 2254,-252 2254,-216 2335,-216 2335,-252"/>
<text text-anchor="middle" x="2294.5" y="-230.3" font-family="Times,serif" font-size="14.00">mulle&#45;url</text>
</g>
<!-- MulleObjCInetFoundation&#45;&gt;mulle&#45;url -->
<g id="edge18" class="edge">
<title>MulleObjCInetFoundation&#45;&gt;mulle&#45;url</title>
<path fill="none" stroke="black" d="M2294.5,-287.7C2294.5,-279.98 2294.5,-270.71 2294.5,-262.11"/>
<polygon fill="black" stroke="black" points="2298,-262.1 2294.5,-252.1 2291,-262.1 2298,-262.1"/>
</g>
<!-- MulleObjCStandardFoundation -->
<g id="node28" class="node">
<title>MulleObjCStandardFoundation</title>
<polygon fill="lightgrey" stroke="black" points="1253,-180 1014,-180 1014,-144 1253,-144 1253,-180"/>
<text text-anchor="middle" x="1133.5" y="-158.3" font-family="Times,serif" font-size="14.00">MulleObjCStandardFoundation</text>
</g>
<!-- src/OSBase&#45;&gt;MulleObjCStandardFoundation -->
<g id="edge36" class="edge">
<title>src/OSBase&#45;&gt;MulleObjCStandardFoundation</title>
<path fill="none" stroke="black" d="M1361.29,-218.65C1357.98,-217.74 1354.69,-216.85 1351.5,-216 1307.16,-204.23 1257.47,-192.07 1216.74,-182.37"/>
<polygon fill="black" stroke="black" points="1217.4,-178.93 1206.86,-180.02 1215.78,-185.74 1217.4,-178.93"/>
</g>
<!-- mulle&#45;mmap -->
<g id="node35" class="node">
<title>mulle&#45;mmap</title>
<polygon fill="lightgrey" stroke="black" points="1376,-180 1271,-180 1271,-144 1376,-144 1376,-180"/>
<text text-anchor="middle" x="1323.5" y="-158.3" font-family="Times,serif" font-size="14.00">mulle&#45;mmap</text>
</g>
<!-- src/OSBase&#45;&gt;mulle&#45;mmap -->
<g id="edge33" class="edge">
<title>src/OSBase&#45;&gt;mulle&#45;mmap</title>
<path fill="none" stroke="black" d="M1388.99,-215.7C1378.04,-206.88 1364.55,-196.03 1352.68,-186.47"/>
<polygon fill="black" stroke="black" points="1354.74,-183.65 1344.76,-180.1 1350.36,-189.1 1354.74,-183.65"/>
</g>
<!-- MulleObjCLockFoundation -->
<g id="node36" class="node">
<title>MulleObjCLockFoundation</title>
<polygon fill="lightgrey" stroke="black" points="1600.5,-180 1394.5,-180 1394.5,-144 1600.5,-144 1600.5,-180"/>
<text text-anchor="middle" x="1497.5" y="-158.3" font-family="Times,serif" font-size="14.00">MulleObjCLockFoundation</text>
</g>
<!-- src/OSBase&#45;&gt;MulleObjCLockFoundation -->
<g id="edge34" class="edge">
<title>src/OSBase&#45;&gt;MulleObjCLockFoundation</title>
<path fill="none" stroke="black" d="M1432.01,-215.7C1442.96,-206.88 1456.45,-196.03 1468.32,-186.47"/>
<polygon fill="black" stroke="black" points="1470.64,-189.1 1476.24,-180.1 1466.26,-183.65 1470.64,-189.1"/>
</g>
<!-- MulleObjCPlistFoundation -->
<g id="node37" class="node">
<title>MulleObjCPlistFoundation</title>
<polygon fill="lightgrey" stroke="black" points="1824,-180 1619,-180 1619,-144 1824,-144 1824,-180"/>
<text text-anchor="middle" x="1721.5" y="-158.3" font-family="Times,serif" font-size="14.00">MulleObjCPlistFoundation</text>
</g>
<!-- src/OSBase&#45;&gt;MulleObjCPlistFoundation -->
<g id="edge35" class="edge">
<title>src/OSBase&#45;&gt;MulleObjCPlistFoundation</title>
<path fill="none" stroke="black" d="M1459.79,-218.27C1462.73,-217.48 1465.65,-216.71 1468.5,-216 1518.69,-203.41 1574.99,-191.41 1621.71,-182.02"/>
<polygon fill="black" stroke="black" points="1622.41,-185.45 1631.53,-180.06 1621.04,-178.59 1622.41,-185.45"/>
</g>
<!-- MulleObjCContainerFoundation -->
<g id="node29" class="node">
<title>MulleObjCContainerFoundation</title>
<polygon fill="lightgrey" stroke="black" points="897,-108 654,-108 654,-72 897,-72 897,-108"/>
<text text-anchor="middle" x="775.5" y="-86.3" font-family="Times,serif" font-size="14.00">MulleObjCContainerFoundation</text>
</g>
<!-- MulleObjCStandardFoundation&#45;&gt;MulleObjCContainerFoundation -->
<g id="edge27" class="edge">
<title>MulleObjCStandardFoundation&#45;&gt;MulleObjCContainerFoundation</title>
<path fill="none" stroke="black" d="M1046.38,-143.97C993.87,-133.7 926.89,-120.6 872.67,-110"/>
<polygon fill="black" stroke="black" points="873.18,-106.53 862.7,-108.05 871.84,-113.4 873.18,-106.53"/>
</g>
<!-- MulleObjCTimeFoundation -->
<g id="node30" class="node">
<title>MulleObjCTimeFoundation</title>
<polygon fill="lightgrey" stroke="black" points="1123.5,-108 915.5,-108 915.5,-72 1123.5,-72 1123.5,-108"/>
<text text-anchor="middle" x="1019.5" y="-86.3" font-family="Times,serif" font-size="14.00">MulleObjCTimeFoundation</text>
</g>
<!-- MulleObjCStandardFoundation&#45;&gt;MulleObjCTimeFoundation -->
<g id="edge28" class="edge">
<title>MulleObjCStandardFoundation&#45;&gt;MulleObjCTimeFoundation</title>
<path fill="none" stroke="black" d="M1105.61,-143.88C1090.71,-134.72 1072.17,-123.34 1056.12,-113.48"/>
<polygon fill="black" stroke="black" points="1057.85,-110.44 1047.49,-108.19 1054.19,-116.41 1057.85,-110.44"/>
</g>
<!-- MulleObjCValueFoundation -->
<g id="node31" class="node">
<title>MulleObjCValueFoundation</title>
<polygon fill="lightgrey" stroke="black" points="1353.5,-108 1141.5,-108 1141.5,-72 1353.5,-72 1353.5,-108"/>
<text text-anchor="middle" x="1247.5" y="-86.3" font-family="Times,serif" font-size="14.00">MulleObjCValueFoundation</text>
</g>
<!-- MulleObjCStandardFoundation&#45;&gt;MulleObjCValueFoundation -->
<g id="edge29" class="edge">
<title>MulleObjCStandardFoundation&#45;&gt;MulleObjCValueFoundation</title>
<path fill="none" stroke="black" d="M1161.39,-143.88C1176.29,-134.72 1194.83,-123.34 1210.88,-113.48"/>
<polygon fill="black" stroke="black" points="1212.81,-116.41 1219.51,-108.19 1209.15,-110.44 1212.81,-116.41"/>
</g>
<!-- mulle&#45;unicode -->
<g id="node32" class="node">
<title>mulle&#45;unicode</title>
<polygon fill="lightgrey" stroke="black" points="1487.5,-108 1371.5,-108 1371.5,-72 1487.5,-72 1487.5,-108"/>
<text text-anchor="middle" x="1429.5" y="-86.3" font-family="Times,serif" font-size="14.00">mulle&#45;unicode</text>
</g>
<!-- MulleObjCStandardFoundation&#45;&gt;mulle&#45;unicode -->
<g id="edge30" class="edge">
<title>MulleObjCStandardFoundation&#45;&gt;mulle&#45;unicode</title>
<path fill="none" stroke="black" d="M1208.89,-143.97C1251.15,-134.33 1305.06,-121.86 1361.58,-108.2"/>
<polygon fill="black" stroke="black" points="1362.52,-111.57 1371.41,-105.82 1360.87,-104.77 1362.52,-111.57"/>
</g>
<!-- MulleObjC -->
<g id="node33" class="node">
<title>MulleObjC</title>
<polygon fill="lightgrey" stroke="black" points="1010.5,-36 918.5,-36 918.5,0 1010.5,0 1010.5,-36"/>
<text text-anchor="middle" x="964.5" y="-14.3" font-family="Times,serif" font-size="14.00">MulleObjC</text>
</g>
<!-- MulleObjCTimeFoundation&#45;&gt;MulleObjC -->
<g id="edge31" class="edge">
<title>MulleObjCTimeFoundation&#45;&gt;MulleObjC</title>
<path fill="none" stroke="black" d="M1005.9,-71.7C999.38,-63.39 991.43,-53.28 984.25,-44.14"/>
<polygon fill="black" stroke="black" points="986.87,-41.81 977.94,-36.1 981.37,-46.13 986.87,-41.81"/>
</g>
<!-- mulle&#45;time -->
<g id="node34" class="node">
<title>mulle&#45;time</title>
<polygon fill="lightgrey" stroke="black" points="1122,-36 1029,-36 1029,0 1122,0 1122,-36"/>
<text text-anchor="middle" x="1075.5" y="-14.3" font-family="Times,serif" font-size="14.00">mulle&#45;time</text>
</g>
<!-- MulleObjCTimeFoundation&#45;&gt;mulle&#45;time -->
<g id="edge32" class="edge">
<title>MulleObjCTimeFoundation&#45;&gt;mulle&#45;time</title>
<path fill="none" stroke="black" d="M1033.34,-71.7C1039.99,-63.39 1048.08,-53.28 1055.39,-44.14"/>
<polygon fill="black" stroke="black" points="1058.3,-46.1 1061.82,-36.1 1052.84,-41.73 1058.3,-46.1"/>
</g>
</g>
</svg>
