<?xml version="1.0" encoding="UTF-8" standalone="no"?>
<!DOCTYPE svg PUBLIC "-//W3C//DTD SVG 1.1//EN"
 "http://www.w3.org/Graphics/SVG/1.1/DTD/svg11.dtd">
<!-- Generated by graphviz version 2.43.0 (0)
 -->
<!-- Title: sourcetree Pages: 1 -->
<svg width="1461pt" height="719pt"
 viewBox="0.00 0.00 1461.00 719.00" xmlns="http://www.w3.org/2000/svg" xmlns:xlink="http://www.w3.org/1999/xlink">
<g id="graph0" class="graph" transform="scale(1 1) rotate(0) translate(4 715)">
<title>sourcetree</title>
<polygon fill="white" stroke="transparent" points="-4,4 -4,-715 1457,-715 1457,4 -4,4"/>
<!-- Foundation -->
<g id="node1" class="node">
<title>Foundation</title>
<polygon fill="yellow" stroke="black" points="97,-198 0,-198 0,-162 97,-162 97,-198"/>
<text text-anchor="middle" x="48.5" y="-176.3" font-family="Times,serif" font-size="14.00">Foundation</text>
</g>
<!-- MulleFoundation -->
<g id="node2" class="node">
<title>MulleFoundation</title>
<polygon fill="lightgrey" stroke="black" points="312.5,-522 175.5,-522 175.5,-486 312.5,-486 312.5,-522"/>
<text text-anchor="middle" x="244" y="-500.3" font-family="Times,serif" font-size="14.00">MulleFoundation</text>
</g>
<!-- Foundation&#45;&gt;MulleFoundation -->
<g id="edge1" class="edge">
<title>Foundation&#45;&gt;MulleFoundation</title>
<path fill="none" stroke="black" d="M60.46,-198.35C92.92,-252.7 188.7,-413.07 226.95,-477.13"/>
<polygon fill="black" stroke="black" points="224.03,-479.06 232.16,-485.85 230.04,-475.47 224.03,-479.06"/>
</g>
<!-- mulle&#45;objc&#45;compat -->
<g id="node3" class="node">
<title>mulle&#45;objc&#45;compat</title>
<polygon fill="lightgrey" stroke="black" points="317.5,-306 170.5,-306 170.5,-270 317.5,-270 317.5,-306"/>
<text text-anchor="middle" x="244" y="-284.3" font-family="Times,serif" font-size="14.00">mulle&#45;objc&#45;compat</text>
</g>
<!-- Foundation&#45;&gt;mulle&#45;objc&#45;compat -->
<g id="edge2" class="edge">
<title>Foundation&#45;&gt;mulle&#45;objc&#45;compat</title>
<path fill="none" stroke="black" d="M63.43,-198.33C78.54,-216.93 104.37,-245.16 133,-261 141.58,-265.75 150.99,-269.67 160.59,-272.91"/>
<polygon fill="black" stroke="black" points="159.63,-276.28 170.22,-275.93 161.72,-269.6 159.63,-276.28"/>
</g>
<!-- MulleObjCExpatFoundation -->
<g id="node4" class="node">
<title>MulleObjCExpatFoundation</title>
<polygon fill="lightgrey" stroke="black" points="351.5,-252 136.5,-252 136.5,-216 351.5,-216 351.5,-252"/>
<text text-anchor="middle" x="244" y="-230.3" font-family="Times,serif" font-size="14.00">MulleObjCExpatFoundation</text>
</g>
<!-- Foundation&#45;&gt;MulleObjCExpatFoundation -->
<g id="edge3" class="edge">
<title>Foundation&#45;&gt;MulleObjCExpatFoundation</title>
<path fill="none" stroke="black" d="M97.01,-196.02C108.72,-199.78 121.28,-203.67 133,-207 140.67,-209.18 148.66,-211.34 156.69,-213.44"/>
<polygon fill="black" stroke="black" points="155.92,-216.86 166.48,-215.97 157.67,-210.08 155.92,-216.86"/>
</g>
<!-- MulleObjCHTTPFoundation -->
<g id="node5" class="node">
<title>MulleObjCHTTPFoundation</title>
<polygon fill="lightgrey" stroke="black" points="350.5,-198 137.5,-198 137.5,-162 350.5,-162 350.5,-198"/>
<text text-anchor="middle" x="244" y="-176.3" font-family="Times,serif" font-size="14.00">MulleObjCHTTPFoundation</text>
</g>
<!-- Foundation&#45;&gt;MulleObjCHTTPFoundation -->
<g id="edge4" class="edge">
<title>Foundation&#45;&gt;MulleObjCHTTPFoundation</title>
<path fill="none" stroke="black" d="M97.33,-180C106.66,-180 116.81,-180 127.27,-180"/>
<polygon fill="black" stroke="black" points="127.38,-183.5 137.38,-180 127.38,-176.5 127.38,-183.5"/>
</g>
<!-- MulleObjCInetOSFoundation -->
<g id="node6" class="node">
<title>MulleObjCInetOSFoundation</title>
<polygon fill="lightgrey" stroke="black" points="355,-144 133,-144 133,-108 355,-108 355,-144"/>
<text text-anchor="middle" x="244" y="-122.3" font-family="Times,serif" font-size="14.00">MulleObjCInetOSFoundation</text>
</g>
<!-- Foundation&#45;&gt;MulleObjCInetOSFoundation -->
<g id="edge5" class="edge">
<title>Foundation&#45;&gt;MulleObjCInetOSFoundation</title>
<path fill="none" stroke="black" d="M97.01,-163.98C108.72,-160.22 121.28,-156.33 133,-153 140.67,-150.82 148.66,-148.66 156.69,-146.56"/>
<polygon fill="black" stroke="black" points="157.67,-149.92 166.48,-144.03 155.92,-143.14 157.67,-149.92"/>
</g>
<!-- mulle&#45;objc&#45;list -->
<g id="node7" class="node">
<title>mulle&#45;objc&#45;list</title>
<polygon fill="lightgrey" stroke="black" points="302.5,-90 185.5,-90 185.5,-54 302.5,-54 302.5,-90"/>
<text text-anchor="middle" x="244" y="-68.3" font-family="Times,serif" font-size="14.00">mulle&#45;objc&#45;list</text>
</g>
<!-- Foundation&#45;&gt;mulle&#45;objc&#45;list -->
<g id="edge6" class="edge">
<title>Foundation&#45;&gt;mulle&#45;objc&#45;list</title>
<path fill="none" stroke="black" d="M63.43,-161.67C78.54,-143.07 104.37,-114.84 133,-99 146,-91.81 160.91,-86.51 175.47,-82.61"/>
<polygon fill="black" stroke="black" points="176.6,-85.93 185.46,-80.13 174.92,-79.14 176.6,-85.93"/>
</g>
<!-- objc&#45;compat -->
<g id="node8" class="node">
<title>objc&#45;compat</title>
<polygon fill="lightgrey" stroke="black" points="295.5,-36 192.5,-36 192.5,0 295.5,0 295.5,-36"/>
<text text-anchor="middle" x="244" y="-14.3" font-family="Times,serif" font-size="14.00">objc&#45;compat</text>
</g>
<!-- Foundation&#45;&gt;objc&#45;compat -->
<g id="edge7" class="edge">
<title>Foundation&#45;&gt;objc&#45;compat</title>
<path fill="none" stroke="black" d="M55.69,-161.53C66.52,-132.13 91.77,-74.99 133,-45 147.36,-34.56 165.27,-28.12 182.44,-24.17"/>
<polygon fill="black" stroke="black" points="183.35,-27.56 192.44,-22.11 181.94,-20.7 183.35,-27.56"/>
</g>
<!-- MulleObjCArchiverFoundation -->
<g id="node9" class="node">
<title>MulleObjCArchiverFoundation</title>
<polygon fill="lightgrey" stroke="black" points="626,-711 393,-711 393,-675 626,-675 626,-711"/>
<text text-anchor="middle" x="509.5" y="-689.3" font-family="Times,serif" font-size="14.00">MulleObjCArchiverFoundation</text>
</g>
<!-- MulleFoundation&#45;&gt;MulleObjCArchiverFoundation -->
<g id="edge8" class="edge">
<title>MulleFoundation&#45;&gt;MulleObjCArchiverFoundation</title>
<path fill="none" stroke="black" d="M255.9,-522.14C277.28,-556.07 328.17,-629.06 391,-666 393.89,-667.7 396.87,-669.29 399.93,-670.78"/>
<polygon fill="black" stroke="black" points="398.75,-674.09 409.31,-674.96 401.6,-667.69 398.75,-674.09"/>
</g>
<!-- MulleObjCCalendarFoundation -->
<g id="node10" class="node">
<title>MulleObjCCalendarFoundation</title>
<polygon fill="lightgrey" stroke="black" points="628,-657 391,-657 391,-621 628,-621 628,-657"/>
<text text-anchor="middle" x="509.5" y="-635.3" font-family="Times,serif" font-size="14.00">MulleObjCCalendarFoundation</text>
</g>
<!-- MulleFoundation&#45;&gt;MulleObjCCalendarFoundation -->
<g id="edge9" class="edge">
<title>MulleFoundation&#45;&gt;MulleObjCCalendarFoundation</title>
<path fill="none" stroke="black" d="M264.09,-522.25C290.49,-546.45 340.59,-588.8 391,-612 395.35,-614 399.85,-615.86 404.46,-617.59"/>
<polygon fill="black" stroke="black" points="403.43,-620.93 414.03,-620.94 405.75,-614.33 403.43,-620.93"/>
</g>
<!-- MulleObjCDecimalFoundation -->
<g id="node11" class="node">
<title>MulleObjCDecimalFoundation</title>
<polygon fill="lightgrey" stroke="black" points="624.5,-603 394.5,-603 394.5,-567 624.5,-567 624.5,-603"/>
<text text-anchor="middle" x="509.5" y="-581.3" font-family="Times,serif" font-size="14.00">MulleObjCDecimalFoundation</text>
</g>
<!-- MulleFoundation&#45;&gt;MulleObjCDecimalFoundation -->
<g id="edge10" class="edge">
<title>MulleFoundation&#45;&gt;MulleObjCDecimalFoundation</title>
<path fill="none" stroke="black" d="M289.23,-522.05C317.92,-533.33 356.3,-547.64 391,-558 398.56,-560.26 406.44,-562.43 414.38,-564.5"/>
<polygon fill="black" stroke="black" points="413.52,-567.9 424.08,-566.98 415.25,-561.12 413.52,-567.9"/>
</g>
<!-- MulleObjCKVCFoundation -->
<g id="node12" class="node">
<title>MulleObjCKVCFoundation</title>
<polygon fill="lightgrey" stroke="black" points="611,-549 408,-549 408,-513 611,-513 611,-549"/>
<text text-anchor="middle" x="509.5" y="-527.3" font-family="Times,serif" font-size="14.00">MulleObjCKVCFoundation</text>
</g>
<!-- MulleFoundation&#45;&gt;MulleObjCKVCFoundation -->
<g id="edge11" class="edge">
<title>MulleFoundation&#45;&gt;MulleObjCKVCFoundation</title>
<path fill="none" stroke="black" d="M312.52,-510.92C338.43,-513.57 368.74,-516.68 397.66,-519.64"/>
<polygon fill="black" stroke="black" points="397.52,-523.15 407.83,-520.68 398.24,-516.18 397.52,-523.15"/>
</g>
<!-- MulleObjCMathFoundation -->
<g id="node13" class="node">
<title>MulleObjCMathFoundation</title>
<polygon fill="lightgrey" stroke="black" points="614.5,-495 404.5,-495 404.5,-459 614.5,-459 614.5,-495"/>
<text text-anchor="middle" x="509.5" y="-473.3" font-family="Times,serif" font-size="14.00">MulleObjCMathFoundation</text>
</g>
<!-- MulleFoundation&#45;&gt;MulleObjCMathFoundation -->
<g id="edge12" class="edge">
<title>MulleFoundation&#45;&gt;MulleObjCMathFoundation</title>
<path fill="none" stroke="black" d="M312.52,-497.08C337.37,-494.54 366.26,-491.58 394.1,-488.72"/>
<polygon fill="black" stroke="black" points="394.7,-492.18 404.3,-487.68 393.99,-485.22 394.7,-492.18"/>
</g>
<!-- MulleObjCOSFoundation -->
<g id="node14" class="node">
<title>MulleObjCOSFoundation</title>
<polygon fill="lightgrey" stroke="black" points="606.5,-441 412.5,-441 412.5,-405 606.5,-405 606.5,-441"/>
<text text-anchor="middle" x="509.5" y="-419.3" font-family="Times,serif" font-size="14.00">MulleObjCOSFoundation</text>
</g>
<!-- MulleFoundation&#45;&gt;MulleObjCOSFoundation -->
<g id="edge13" class="edge">
<title>MulleFoundation&#45;&gt;MulleObjCOSFoundation</title>
<path fill="none" stroke="black" d="M289.23,-485.95C317.92,-474.67 356.3,-460.36 391,-450 398.56,-447.74 406.44,-445.57 414.38,-443.5"/>
<polygon fill="black" stroke="black" points="415.25,-446.88 424.08,-441.02 413.52,-440.1 415.25,-446.88"/>
</g>
<!-- MulleObjCUnicodeFoundation -->
<g id="node15" class="node">
<title>MulleObjCUnicodeFoundation</title>
<polygon fill="lightgrey" stroke="black" points="625,-387 394,-387 394,-351 625,-351 625,-387"/>
<text text-anchor="middle" x="509.5" y="-365.3" font-family="Times,serif" font-size="14.00">MulleObjCUnicodeFoundation</text>
</g>
<!-- MulleFoundation&#45;&gt;MulleObjCUnicodeFoundation -->
<g id="edge14" class="edge">
<title>MulleFoundation&#45;&gt;MulleObjCUnicodeFoundation</title>
<path fill="none" stroke="black" d="M264.09,-485.75C290.49,-461.55 340.59,-419.2 391,-396 395.35,-394 399.85,-392.14 404.46,-390.41"/>
<polygon fill="black" stroke="black" points="405.75,-393.67 414.03,-387.06 403.43,-387.07 405.75,-393.67"/>
</g>
<!-- craftinfo/expat -->
<g id="node16" class="node">
<title>craftinfo/expat</title>
<polygon fill="lightgrey" stroke="black" points="570.5,-333 448.5,-333 448.5,-297 570.5,-297 570.5,-333"/>
<text text-anchor="middle" x="509.5" y="-311.3" font-family="Times,serif" font-size="14.00">craftinfo/expat</text>
</g>
<!-- MulleObjCExpatFoundation&#45;&gt;craftinfo/expat -->
<g id="edge15" class="edge">
<title>MulleObjCExpatFoundation&#45;&gt;craftinfo/expat</title>
<path fill="none" stroke="black" d="M332.6,-252.04C340.32,-254.66 347.89,-257.63 355,-261 373.08,-269.56 372.86,-279.58 391,-288 405.78,-294.86 422.43,-300.05 438.46,-303.94"/>
<polygon fill="black" stroke="black" points="437.8,-307.38 448.33,-306.2 439.36,-300.56 437.8,-307.38"/>
</g>
<!-- expat -->
<g id="node17" class="node">
<title>expat</title>
<polygon fill="lightgrey" stroke="black" points="537.5,-279 481.5,-279 481.5,-243 537.5,-243 537.5,-279"/>
<text text-anchor="middle" x="509.5" y="-257.3" font-family="Times,serif" font-size="14.00">expat</text>
</g>
<!-- MulleObjCExpatFoundation&#45;&gt;expat -->
<g id="edge16" class="edge">
<title>MulleObjCExpatFoundation&#45;&gt;expat</title>
<path fill="none" stroke="black" d="M351.8,-244.94C394.22,-249.29 440.23,-254 471.34,-257.19"/>
<polygon fill="black" stroke="black" points="470.99,-260.68 481.3,-258.21 471.71,-253.71 470.99,-260.68"/>
</g>
<!-- MulleBase64 -->
<g id="node18" class="node">
<title>MulleBase64</title>
<polygon fill="lightgrey" stroke="black" points="564.5,-225 454.5,-225 454.5,-189 564.5,-189 564.5,-225"/>
<text text-anchor="middle" x="509.5" y="-203.3" font-family="Times,serif" font-size="14.00">MulleBase64</text>
</g>
<!-- MulleObjCExpatFoundation&#45;&gt;MulleBase64 -->
<g id="edge17" class="edge">
<title>MulleObjCExpatFoundation&#45;&gt;MulleBase64</title>
<path fill="none" stroke="black" d="M351.8,-223.06C383.18,-219.84 416.52,-216.42 444.35,-213.57"/>
<polygon fill="black" stroke="black" points="444.75,-217.05 454.34,-212.55 444.03,-210.09 444.75,-217.05"/>
</g>
<!-- mulle&#45;http -->
<g id="node19" class="node">
<title>mulle&#45;http</title>
<polygon fill="lightgrey" stroke="black" points="555,-171 464,-171 464,-135 555,-135 555,-171"/>
<text text-anchor="middle" x="509.5" y="-149.3" font-family="Times,serif" font-size="14.00">mulle&#45;http</text>
</g>
<!-- MulleObjCHTTPFoundation&#45;&gt;mulle&#45;http -->
<g id="edge18" class="edge">
<title>MulleObjCHTTPFoundation&#45;&gt;mulle&#45;http</title>
<path fill="none" stroke="black" d="M350.66,-169.17C386.01,-165.55 423.97,-161.66 453.8,-158.6"/>
<polygon fill="black" stroke="black" points="454.41,-162.06 464,-157.56 453.69,-155.1 454.41,-162.06"/>
</g>
<!-- MulleObjCInetFoundation -->
<g id="node20" class="node">
<title>MulleObjCInetFoundation</title>
<polygon fill="lightgrey" stroke="black" points="610,-117 409,-117 409,-81 610,-81 610,-117"/>
<text text-anchor="middle" x="509.5" y="-95.3" font-family="Times,serif" font-size="14.00">MulleObjCInetFoundation</text>
</g>
<!-- MulleObjCInetOSFoundation&#45;&gt;MulleObjCInetFoundation -->
<g id="edge20" class="edge">
<title>MulleObjCInetOSFoundation&#45;&gt;MulleObjCInetFoundation</title>
<path fill="none" stroke="black" d="M355.22,-114.71C369.52,-113.24 384.17,-111.74 398.46,-110.28"/>
<polygon fill="black" stroke="black" points="399.21,-113.72 408.8,-109.22 398.5,-106.75 399.21,-113.72"/>
</g>
<!-- src/BSD -->
<g id="node24" class="node">
<title>src/BSD</title>
<polygon fill="lightgrey" stroke="black" points="754.5,-603 680.5,-603 680.5,-567 754.5,-567 754.5,-603"/>
<text text-anchor="middle" x="717.5" y="-581.3" font-family="Times,serif" font-size="14.00">src/BSD</text>
</g>
<!-- MulleObjCOSFoundation&#45;&gt;src/BSD -->
<g id="edge22" class="edge">
<title>MulleObjCOSFoundation&#45;&gt;src/BSD</title>
<path fill="none" stroke="black" d="M606.77,-436.07C614.5,-439.73 621.73,-444.3 628,-450 665.45,-484.02 631.07,-519.59 664,-558 666.41,-560.81 669.19,-563.37 672.17,-565.68"/>
<polygon fill="black" stroke="black" points="670.23,-568.59 680.48,-571.26 674.13,-562.78 670.23,-568.59"/>
</g>
<!-- src/Darwin -->
<g id="node25" class="node">
<title>src/Darwin</title>
<polygon fill="lightgrey" stroke="black" points="765,-549 670,-549 670,-513 765,-513 765,-549"/>
<text text-anchor="middle" x="717.5" y="-527.3" font-family="Times,serif" font-size="14.00">src/Darwin</text>
</g>
<!-- MulleObjCOSFoundation&#45;&gt;src/Darwin -->
<g id="edge23" class="edge">
<title>MulleObjCOSFoundation&#45;&gt;src/Darwin</title>
<path fill="none" stroke="black" d="M606.76,-438.56C614.26,-441.71 621.45,-445.48 628,-450 651.74,-466.39 642.48,-484.79 664,-504 665.15,-505.02 666.34,-506.02 667.57,-506.99"/>
<polygon fill="black" stroke="black" points="665.92,-510.11 676.11,-512.98 669.93,-504.37 665.92,-510.11"/>
</g>
<!-- src/FreeBSD -->
<g id="node26" class="node">
<title>src/FreeBSD</title>
<polygon fill="lightgrey" stroke="black" points="771,-495 664,-495 664,-459 771,-459 771,-495"/>
<text text-anchor="middle" x="717.5" y="-473.3" font-family="Times,serif" font-size="14.00">src/FreeBSD</text>
</g>
<!-- MulleObjCOSFoundation&#45;&gt;src/FreeBSD -->
<g id="edge24" class="edge">
<title>MulleObjCOSFoundation&#45;&gt;src/FreeBSD</title>
<path fill="none" stroke="black" d="M592.54,-441.08C604.47,-443.93 616.57,-446.95 628,-450 636.46,-452.26 645.32,-454.78 654.04,-457.35"/>
<polygon fill="black" stroke="black" points="653.21,-460.75 663.79,-460.26 655.21,-454.04 653.21,-460.75"/>
</g>
<!-- src/Linux -->
<g id="node27" class="node">
<title>src/Linux</title>
<polygon fill="lightgrey" stroke="black" points="759,-441 676,-441 676,-405 759,-405 759,-441"/>
<text text-anchor="middle" x="717.5" y="-419.3" font-family="Times,serif" font-size="14.00">src/Linux</text>
</g>
<!-- MulleObjCOSFoundation&#45;&gt;src/Linux -->
<g id="edge25" class="edge">
<title>MulleObjCOSFoundation&#45;&gt;src/Linux</title>
<path fill="none" stroke="black" d="M606.56,-423C626.99,-423 647.79,-423 665.72,-423"/>
<polygon fill="black" stroke="black" points="665.92,-426.5 675.92,-423 665.92,-419.5 665.92,-426.5"/>
</g>
<!-- src/OSBase -->
<g id="node28" class="node">
<title>src/OSBase</title>
<polygon fill="lightgrey" stroke="black" points="766.5,-387 668.5,-387 668.5,-351 766.5,-351 766.5,-387"/>
<text text-anchor="middle" x="717.5" y="-365.3" font-family="Times,serif" font-size="14.00">src/OSBase</text>
</g>
<!-- MulleObjCOSFoundation&#45;&gt;src/OSBase -->
<g id="edge26" class="edge">
<title>MulleObjCOSFoundation&#45;&gt;src/OSBase</title>
<path fill="none" stroke="black" d="M592.54,-404.92C604.47,-402.07 616.57,-399.05 628,-396 638,-393.33 648.57,-390.29 658.79,-387.25"/>
<polygon fill="black" stroke="black" points="659.89,-390.57 668.45,-384.33 657.86,-383.87 659.89,-390.57"/>
</g>
<!-- src/Posix -->
<g id="node29" class="node">
<title>src/Posix</title>
<polygon fill="lightgrey" stroke="black" points="757.5,-333 677.5,-333 677.5,-297 757.5,-297 757.5,-333"/>
<text text-anchor="middle" x="717.5" y="-311.3" font-family="Times,serif" font-size="14.00">src/Posix</text>
</g>
<!-- MulleObjCOSFoundation&#45;&gt;src/Posix -->
<g id="edge27" class="edge">
<title>MulleObjCOSFoundation&#45;&gt;src/Posix</title>
<path fill="none" stroke="black" d="M606.76,-407.44C614.26,-404.29 621.45,-400.52 628,-396 651.74,-379.61 642.48,-361.21 664,-342 665.52,-340.64 667.12,-339.33 668.78,-338.07"/>
<polygon fill="black" stroke="black" points="671.15,-340.69 677.46,-332.18 667.22,-334.9 671.15,-340.69"/>
</g>
<!-- src/Windows -->
<g id="node30" class="node">
<title>src/Windows</title>
<polygon fill="lightgrey" stroke="black" points="771,-279 664,-279 664,-243 771,-243 771,-279"/>
<text text-anchor="middle" x="717.5" y="-257.3" font-family="Times,serif" font-size="14.00">src/Windows</text>
</g>
<!-- MulleObjCOSFoundation&#45;&gt;src/Windows -->
<g id="edge28" class="edge">
<title>MulleObjCOSFoundation&#45;&gt;src/Windows</title>
<path fill="none" stroke="black" d="M606.77,-409.93C614.5,-406.27 621.73,-401.7 628,-396 665.45,-361.98 631.07,-326.41 664,-288 664.72,-287.16 665.47,-286.35 666.24,-285.56"/>
<polygon fill="black" stroke="black" points="668.57,-288.18 673.9,-279.02 664.02,-282.85 668.57,-288.18"/>
</g>
<!-- mulle&#45;url -->
<g id="node21" class="node">
<title>mulle&#45;url</title>
<polygon fill="lightgrey" stroke="black" points="758,-117 677,-117 677,-81 758,-81 758,-117"/>
<text text-anchor="middle" x="717.5" y="-95.3" font-family="Times,serif" font-size="14.00">mulle&#45;url</text>
</g>
<!-- MulleObjCInetFoundation&#45;&gt;mulle&#45;url -->
<g id="edge19" class="edge">
<title>MulleObjCInetFoundation&#45;&gt;mulle&#45;url</title>
<path fill="none" stroke="black" d="M610.18,-99C629.74,-99 649.46,-99 666.52,-99"/>
<polygon fill="black" stroke="black" points="666.77,-102.5 676.77,-99 666.77,-95.5 666.77,-102.5"/>
</g>
<!-- MulleObjCLockFoundation -->
<g id="node22" class="node">
<title>MulleObjCLockFoundation</title>
<polygon fill="lightgrey" stroke="black" points="1029.5,-495 823.5,-495 823.5,-459 1029.5,-459 1029.5,-495"/>
<text text-anchor="middle" x="926.5" y="-473.3" font-family="Times,serif" font-size="14.00">MulleObjCLockFoundation</text>
</g>
<!-- mulle&#45;time -->
<g id="node23" class="node">
<title>mulle&#45;time</title>
<polygon fill="lightgrey" stroke="black" points="1250,-508 1157,-508 1157,-472 1250,-472 1250,-508"/>
<text text-anchor="middle" x="1203.5" y="-486.3" font-family="Times,serif" font-size="14.00">mulle&#45;time</text>
</g>
<!-- MulleObjCLockFoundation&#45;&gt;mulle&#45;time -->
<g id="edge21" class="edge">
<title>MulleObjCLockFoundation&#45;&gt;mulle&#45;time</title>
<path fill="none" stroke="black" d="M1029.51,-481.82C1069.13,-483.7 1112.97,-485.77 1146.6,-487.36"/>
<polygon fill="black" stroke="black" points="1146.54,-490.86 1156.69,-487.83 1146.87,-483.87 1146.54,-490.86"/>
</g>
<!-- src/OSBase&#45;&gt;MulleObjCLockFoundation -->
<g id="edge34" class="edge">
<title>src/OSBase&#45;&gt;MulleObjCLockFoundation</title>
<path fill="none" stroke="black" d="M755.65,-387.11C760.89,-389.95 766.13,-392.95 771,-396 787.95,-406.61 789.8,-412.79 807,-423 827.06,-434.91 850.21,-445.99 870.69,-454.98"/>
<polygon fill="black" stroke="black" points="869.32,-458.2 879.89,-458.95 872.1,-451.77 869.32,-458.2"/>
</g>
<!-- MulleObjCStandardFoundation -->
<g id="node31" class="node">
<title>MulleObjCStandardFoundation</title>
<polygon fill="lightgrey" stroke="black" points="1046,-414 807,-414 807,-378 1046,-378 1046,-414"/>
<text text-anchor="middle" x="926.5" y="-392.3" font-family="Times,serif" font-size="14.00">MulleObjCStandardFoundation</text>
</g>
<!-- src/OSBase&#45;&gt;MulleObjCStandardFoundation -->
<g id="edge36" class="edge">
<title>src/OSBase&#45;&gt;MulleObjCStandardFoundation</title>
<path fill="none" stroke="black" d="M766.51,-375.26C775.83,-376.48 786.01,-377.81 796.56,-379.18"/>
<polygon fill="black" stroke="black" points="796.41,-382.69 806.77,-380.51 797.31,-375.75 796.41,-382.69"/>
</g>
<!-- mulle&#45;mmap -->
<g id="node36" class="node">
<title>mulle&#45;mmap</title>
<polygon fill="lightgrey" stroke="black" points="979,-360 874,-360 874,-324 979,-324 979,-360"/>
<text text-anchor="middle" x="926.5" y="-338.3" font-family="Times,serif" font-size="14.00">mulle&#45;mmap</text>
</g>
<!-- src/OSBase&#45;&gt;mulle&#45;mmap -->
<g id="edge33" class="edge">
<title>src/OSBase&#45;&gt;mulle&#45;mmap</title>
<path fill="none" stroke="black" d="M766.51,-362.74C795.37,-358.97 832.41,-354.14 863.48,-350.09"/>
<polygon fill="black" stroke="black" points="864.3,-353.51 873.77,-348.75 863.4,-346.57 864.3,-353.51"/>
</g>
<!-- MulleObjCPlistFoundation -->
<g id="node37" class="node">
<title>MulleObjCPlistFoundation</title>
<polygon fill="lightgrey" stroke="black" points="1029,-306 824,-306 824,-270 1029,-270 1029,-306"/>
<text text-anchor="middle" x="926.5" y="-284.3" font-family="Times,serif" font-size="14.00">MulleObjCPlistFoundation</text>
</g>
<!-- src/OSBase&#45;&gt;MulleObjCPlistFoundation -->
<g id="edge35" class="edge">
<title>src/OSBase&#45;&gt;MulleObjCPlistFoundation</title>
<path fill="none" stroke="black" d="M755.65,-350.89C760.89,-348.05 766.13,-345.05 771,-342 787.95,-331.39 788.85,-323.41 807,-315 811.32,-313 815.8,-311.14 820.37,-309.42"/>
<polygon fill="black" stroke="black" points="821.62,-312.69 829.89,-306.06 819.29,-306.09 821.62,-312.69"/>
</g>
<!-- MulleObjCContainerFoundation -->
<g id="node32" class="node">
<title>MulleObjCContainerFoundation</title>
<polygon fill="lightgrey" stroke="black" points="1325,-454 1082,-454 1082,-418 1325,-418 1325,-454"/>
<text text-anchor="middle" x="1203.5" y="-432.3" font-family="Times,serif" font-size="14.00">MulleObjCContainerFoundation</text>
</g>
<!-- MulleObjCStandardFoundation&#45;&gt;MulleObjCContainerFoundation -->
<g id="edge29" class="edge">
<title>MulleObjCStandardFoundation&#45;&gt;MulleObjCContainerFoundation</title>
<path fill="none" stroke="black" d="M1046.12,-413.25C1054.58,-414.48 1063.14,-415.73 1071.67,-416.97"/>
<polygon fill="black" stroke="black" points="1071.26,-420.45 1081.66,-418.42 1072.26,-413.52 1071.26,-420.45"/>
</g>
<!-- MulleObjCValueFoundation -->
<g id="node33" class="node">
<title>MulleObjCValueFoundation</title>
<polygon fill="lightgrey" stroke="black" points="1309.5,-400 1097.5,-400 1097.5,-364 1309.5,-364 1309.5,-400"/>
<text text-anchor="middle" x="1203.5" y="-378.3" font-family="Times,serif" font-size="14.00">MulleObjCValueFoundation</text>
</g>
<!-- MulleObjCStandardFoundation&#45;&gt;MulleObjCValueFoundation -->
<g id="edge30" class="edge">
<title>MulleObjCStandardFoundation&#45;&gt;MulleObjCValueFoundation</title>
<path fill="none" stroke="black" d="M1046.12,-389.96C1059.67,-389.27 1073.48,-388.57 1086.99,-387.88"/>
<polygon fill="black" stroke="black" points="1087.45,-391.36 1097.26,-387.36 1087.09,-384.37 1087.45,-391.36"/>
</g>
<!-- mulle&#45;unicode -->
<g id="node34" class="node">
<title>mulle&#45;unicode</title>
<polygon fill="lightgrey" stroke="black" points="1261.5,-346 1145.5,-346 1145.5,-310 1261.5,-310 1261.5,-346"/>
<text text-anchor="middle" x="1203.5" y="-324.3" font-family="Times,serif" font-size="14.00">mulle&#45;unicode</text>
</g>
<!-- MulleObjCStandardFoundation&#45;&gt;mulle&#45;unicode -->
<g id="edge31" class="edge">
<title>MulleObjCStandardFoundation&#45;&gt;mulle&#45;unicode</title>
<path fill="none" stroke="black" d="M1013.65,-377.94C1024.61,-375.18 1035.61,-372.18 1046,-369 1062.41,-363.97 1065.58,-360 1082,-355 1099.06,-349.8 1117.75,-345.13 1135.22,-341.2"/>
<polygon fill="black" stroke="black" points="1136.33,-344.54 1145.34,-338.97 1134.82,-337.7 1136.33,-344.54"/>
</g>
<!-- MulleObjC -->
<g id="node35" class="node">
<title>MulleObjC</title>
<polygon fill="lightgrey" stroke="black" points="1453,-400 1361,-400 1361,-364 1453,-364 1453,-400"/>
<text text-anchor="middle" x="1407" y="-378.3" font-family="Times,serif" font-size="14.00">MulleObjC</text>
</g>
<!-- MulleObjCValueFoundation&#45;&gt;MulleObjC -->
<g id="edge32" class="edge">
<title>MulleObjCValueFoundation&#45;&gt;MulleObjC</title>
<path fill="none" stroke="black" d="M1309.68,-382C1323.69,-382 1337.59,-382 1350.29,-382"/>
<polygon fill="black" stroke="black" points="1350.65,-385.5 1360.65,-382 1350.65,-378.5 1350.65,-385.5"/>
</g>
</g>
</svg>
