<?xml version="1.0" encoding="UTF-8" standalone="no"?>
<!DOCTYPE svg PUBLIC "-//W3C//DTD SVG 1.1//EN"
 "http://www.w3.org/Graphics/SVG/1.1/DTD/svg11.dtd">
<!-- Generated by graphviz version 2.43.0 (0)
 -->
<!-- Title: sourcetree Pages: 1 -->
<svg width="4033pt" height="260pt"
 viewBox="0.00 0.00 4032.50 260.00" xmlns="http://www.w3.org/2000/svg" xmlns:xlink="http://www.w3.org/1999/xlink">
<g id="graph0" class="graph" transform="scale(1 1) rotate(0) translate(4 256)">
<title>sourcetree</title>
<polygon fill="white" stroke="transparent" points="-4,4 -4,-256 4028.5,-256 4028.5,4 -4,4"/>
<!-- Foundation -->
<g id="node1" class="node">
<title>Foundation</title>
<polygon fill="yellow" stroke="black" points="908,-252 811,-252 811,-216 908,-216 908,-252"/>
<text text-anchor="middle" x="859.5" y="-230.3" font-family="Times,serif" font-size="14.00">Foundation</text>
</g>
<!-- MulleFoundation -->
<g id="node5" class="node">
<title>MulleFoundation</title>
<g id="a_node5"><a xlink:href="https://github.com/MulleFoundation/MulleFoundation" xlink:title="MulleFoundation">
<polygon fill="lightgrey" stroke="black" points="446,-180 309,-180 309,-144 446,-144 446,-180"/>
<text text-anchor="middle" x="377.5" y="-158.3" font-family="Times,serif" font-size="14.00">MulleFoundation</text>
</a>
</g>
</g>
<!-- Foundation&#45;&gt;MulleFoundation -->
<g id="edge1" class="edge">
<title>Foundation&#45;&gt;MulleFoundation</title>
<path fill="none" stroke="black" d="M810.94,-227.6C735.81,-219.01 586.97,-201.03 461.5,-180 459.78,-179.71 458.05,-179.42 456.3,-179.11"/>
<polygon fill="black" stroke="black" points="456.65,-175.62 446.19,-177.29 455.42,-182.51 456.65,-175.62"/>
</g>
<!-- mulle&#45;objc&#45;compat -->
<g id="node6" class="node">
<title>mulle&#45;objc&#45;compat</title>
<g id="a_node6"><a xlink:href="https://github.com/mulle-objc/mulle-objc-compat" xlink:title="mulle&#45;objc&#45;compat">
<polygon fill="lightgrey" stroke="black" points="618,-180 471,-180 471,-144 618,-144 618,-180"/>
<text text-anchor="middle" x="544.5" y="-158.3" font-family="Times,serif" font-size="14.00">mulle&#45;objc&#45;compat</text>
</a>
</g>
</g>
<!-- Foundation&#45;&gt;mulle&#45;objc&#45;compat -->
<g id="edge2" class="edge">
<title>Foundation&#45;&gt;mulle&#45;objc&#45;compat</title>
<path fill="none" stroke="black" d="M810.97,-222.22C762.36,-211.41 686.57,-194.57 628.23,-181.61"/>
<polygon fill="black" stroke="black" points="628.81,-178.15 618.29,-179.4 627.29,-184.98 628.81,-178.15"/>
</g>
<!-- MulleObjCExpatFoundation -->
<g id="node7" class="node">
<title>MulleObjCExpatFoundation</title>
<g id="a_node7"><a xlink:href="https://github.com/MulleFoundation/MulleObjCExpatFoundation" xlink:title="MulleObjCExpatFoundation">
<polygon fill="lightgrey" stroke="black" points="851,-180 636,-180 636,-144 851,-144 851,-180"/>
<text text-anchor="middle" x="743.5" y="-158.3" font-family="Times,serif" font-size="14.00">MulleObjCExpatFoundation</text>
</a>
</g>
</g>
<!-- Foundation&#45;&gt;MulleObjCExpatFoundation -->
<g id="edge3" class="edge">
<title>Foundation&#45;&gt;MulleObjCExpatFoundation</title>
<path fill="none" stroke="black" d="M831.12,-215.88C815.96,-206.72 797.09,-195.34 780.76,-185.48"/>
<polygon fill="black" stroke="black" points="782.36,-182.36 771.99,-180.19 778.74,-188.35 782.36,-182.36"/>
</g>
<!-- MulleObjCHTTPFoundation -->
<g id="node8" class="node">
<title>MulleObjCHTTPFoundation</title>
<g id="a_node8"><a xlink:href="https://github.com/MulleWeb/MulleObjCHTTPFoundation" xlink:title="MulleObjCHTTPFoundation">
<polygon fill="lightgrey" stroke="black" points="1082,-180 869,-180 869,-144 1082,-144 1082,-180"/>
<text text-anchor="middle" x="975.5" y="-158.3" font-family="Times,serif" font-size="14.00">MulleObjCHTTPFoundation</text>
</a>
</g>
</g>
<!-- Foundation&#45;&gt;MulleObjCHTTPFoundation -->
<g id="edge4" class="edge">
<title>Foundation&#45;&gt;MulleObjCHTTPFoundation</title>
<path fill="none" stroke="black" d="M887.88,-215.88C903.04,-206.72 921.91,-195.34 938.24,-185.48"/>
<polygon fill="black" stroke="black" points="940.26,-188.35 947.01,-180.19 936.64,-182.36 940.26,-188.35"/>
</g>
<!-- MulleObjCInetOSFoundation -->
<g id="node9" class="node">
<title>MulleObjCInetOSFoundation</title>
<g id="a_node9"><a xlink:href="https://github.com/MulleFoundation/MulleObjCInetOSFoundation" xlink:title="MulleObjCInetOSFoundation">
<polygon fill="lightgrey" stroke="black" points="1321.5,-180 1099.5,-180 1099.5,-144 1321.5,-144 1321.5,-180"/>
<text text-anchor="middle" x="1210.5" y="-158.3" font-family="Times,serif" font-size="14.00">MulleObjCInetOSFoundation</text>
</a>
</g>
</g>
<!-- Foundation&#45;&gt;MulleObjCInetOSFoundation -->
<g id="edge5" class="edge">
<title>Foundation&#45;&gt;MulleObjCInetOSFoundation</title>
<path fill="none" stroke="black" d="M908.31,-223.27C961.52,-212.65 1048.01,-195.41 1114.85,-182.07"/>
<polygon fill="black" stroke="black" points="1115.86,-185.44 1124.99,-180.05 1114.5,-178.58 1115.86,-185.44"/>
</g>
<!-- objc&#45;compat -->
<g id="node10" class="node">
<title>objc&#45;compat</title>
<g id="a_node10"><a xlink:href="https://github.com/MulleFoundation/objc-compat" xlink:title="objc&#45;compat">
<polygon fill="lightgrey" stroke="black" points="1443,-180 1340,-180 1340,-144 1443,-144 1443,-180"/>
<text text-anchor="middle" x="1391.5" y="-158.3" font-family="Times,serif" font-size="14.00">objc&#45;compat</text>
</a>
</g>
</g>
<!-- Foundation&#45;&gt;objc&#45;compat -->
<g id="edge6" class="edge">
<title>Foundation&#45;&gt;objc&#45;compat</title>
<path fill="none" stroke="black" d="M908.03,-230.11C992.11,-224.53 1170.33,-210.27 1329.73,-179.96"/>
<polygon fill="black" stroke="black" points="1330.56,-183.37 1339.72,-178.04 1329.24,-176.49 1330.56,-183.37"/>
</g>
<!-- BSD -->
<g id="node2" class="node">
<title>BSD</title>
<g id="a_node2"><a xlink:href="https://unknown.com/" xlink:title="BSD">
<polygon fill="lightgrey" stroke="black" points="368.5,-36 314.5,-36 314.5,0 368.5,0 368.5,-36"/>
<text text-anchor="middle" x="341.5" y="-14.3" font-family="Times,serif" font-size="14.00">BSD</text>
</a>
</g>
</g>
<!-- Darwin -->
<g id="node3" class="node">
<title>Darwin</title>
<g id="a_node3"><a xlink:href="https://unknown.com/" xlink:title="Darwin">
<polygon fill="lightgrey" stroke="black" points="454.5,-36 386.5,-36 386.5,0 454.5,0 454.5,-36"/>
<text text-anchor="middle" x="420.5" y="-14.3" font-family="Times,serif" font-size="14.00">Darwin</text>
</a>
</g>
</g>
<!-- expat -->
<g id="node4" class="node">
<title>expat</title>
<g id="a_node4"><a xlink:href="https://unknown.com/" xlink:title="expat">
<polygon fill="lightgrey" stroke="black" points="771.5,-108 715.5,-108 715.5,-72 771.5,-72 771.5,-108"/>
<text text-anchor="middle" x="743.5" y="-86.3" font-family="Times,serif" font-size="14.00">expat</text>
</a>
</g>
</g>
<!-- MulleObjCCalendarFoundation -->
<g id="node27" class="node">
<title>MulleObjCCalendarFoundation</title>
<g id="a_node27"><a xlink:href="https://github.com/MulleFoundation/MulleObjCCalendarFoundation" xlink:title="MulleObjCCalendarFoundation">
<polygon fill="lightgrey" stroke="black" points="237,-108 0,-108 0,-72 237,-72 237,-108"/>
<text text-anchor="middle" x="118.5" y="-86.3" font-family="Times,serif" font-size="14.00">MulleObjCCalendarFoundation</text>
</a>
</g>
</g>
<!-- MulleFoundation&#45;&gt;MulleObjCCalendarFoundation -->
<g id="edge19" class="edge">
<title>MulleFoundation&#45;&gt;MulleObjCCalendarFoundation</title>
<path fill="none" stroke="black" d="M314.47,-143.97C277.34,-133.93 230.2,-121.19 191.47,-110.72"/>
<polygon fill="black" stroke="black" points="192.38,-107.34 181.81,-108.11 190.55,-114.1 192.38,-107.34"/>
</g>
<!-- MulleObjCDecimalFoundation -->
<g id="node28" class="node">
<title>MulleObjCDecimalFoundation</title>
<g id="a_node28"><a xlink:href="https://github.com/MulleFoundation/MulleObjCDecimalFoundation" xlink:title="MulleObjCDecimalFoundation">
<polygon fill="lightgrey" stroke="black" points="485.5,-108 255.5,-108 255.5,-72 485.5,-72 485.5,-108"/>
<text text-anchor="middle" x="370.5" y="-86.3" font-family="Times,serif" font-size="14.00">MulleObjCDecimalFoundation</text>
</a>
</g>
</g>
<!-- MulleFoundation&#45;&gt;MulleObjCDecimalFoundation -->
<g id="edge20" class="edge">
<title>MulleFoundation&#45;&gt;MulleObjCDecimalFoundation</title>
<path fill="none" stroke="black" d="M375.77,-143.7C375,-135.98 374.07,-126.71 373.21,-118.11"/>
<polygon fill="black" stroke="black" points="376.69,-117.71 372.21,-108.1 369.72,-118.4 376.69,-117.71"/>
</g>
<!-- MulleObjCOSFoundation -->
<g id="node29" class="node">
<title>MulleObjCOSFoundation</title>
<g id="a_node29"><a xlink:href="https://github.com/MulleFoundation/MulleObjCOSFoundation" xlink:title="MulleObjCOSFoundation">
<polygon fill="lightgrey" stroke="black" points="697.5,-108 503.5,-108 503.5,-72 697.5,-72 697.5,-108"/>
<text text-anchor="middle" x="600.5" y="-86.3" font-family="Times,serif" font-size="14.00">MulleObjCOSFoundation</text>
</a>
</g>
</g>
<!-- MulleFoundation&#45;&gt;MulleObjCOSFoundation -->
<g id="edge21" class="edge">
<title>MulleFoundation&#45;&gt;MulleObjCOSFoundation</title>
<path fill="none" stroke="black" d="M431.77,-143.97C463.33,-134.06 503.29,-121.51 536.4,-111.12"/>
<polygon fill="black" stroke="black" points="537.5,-114.45 545.99,-108.11 535.4,-107.77 537.5,-114.45"/>
</g>
<!-- MulleObjCExpatFoundation&#45;&gt;expat -->
<g id="edge22" class="edge">
<title>MulleObjCExpatFoundation&#45;&gt;expat</title>
<path fill="none" stroke="black" d="M743.5,-143.7C743.5,-135.98 743.5,-126.71 743.5,-118.11"/>
<polygon fill="black" stroke="black" points="747,-118.1 743.5,-108.1 740,-118.1 747,-118.1"/>
</g>
<!-- MulleBase64 -->
<g id="node13" class="node">
<title>MulleBase64</title>
<g id="a_node13"><a xlink:href="https://github.com/MulleWeb/MulleBase64" xlink:title="MulleBase64">
<polygon fill="lightgrey" stroke="black" points="899.5,-108 789.5,-108 789.5,-72 899.5,-72 899.5,-108"/>
<text text-anchor="middle" x="844.5" y="-86.3" font-family="Times,serif" font-size="14.00">MulleBase64</text>
</a>
</g>
</g>
<!-- MulleObjCExpatFoundation&#45;&gt;MulleBase64 -->
<g id="edge23" class="edge">
<title>MulleObjCExpatFoundation&#45;&gt;MulleBase64</title>
<path fill="none" stroke="black" d="M768.21,-143.88C781.17,-134.89 797.23,-123.76 811.27,-114.03"/>
<polygon fill="black" stroke="black" points="813.47,-116.76 819.7,-108.19 809.48,-111.01 813.47,-116.76"/>
</g>
<!-- MulleObjCInetFoundation -->
<g id="node32" class="node">
<title>MulleObjCInetFoundation</title>
<g id="a_node32"><a xlink:href="https://github.com/MulleWeb/MulleObjCInetFoundation" xlink:title="MulleObjCInetFoundation">
<polygon fill="lightgrey" stroke="black" points="1311,-108 1110,-108 1110,-72 1311,-72 1311,-108"/>
<text text-anchor="middle" x="1210.5" y="-86.3" font-family="Times,serif" font-size="14.00">MulleObjCInetFoundation</text>
</a>
</g>
</g>
<!-- MulleObjCInetOSFoundation&#45;&gt;MulleObjCInetFoundation -->
<g id="edge24" class="edge">
<title>MulleObjCInetOSFoundation&#45;&gt;MulleObjCInetFoundation</title>
<path fill="none" stroke="black" d="M1210.5,-143.7C1210.5,-135.98 1210.5,-126.71 1210.5,-118.11"/>
<polygon fill="black" stroke="black" points="1214,-118.1 1210.5,-108.1 1207,-118.1 1214,-118.1"/>
</g>
<!-- FreeBSD -->
<g id="node11" class="node">
<title>FreeBSD</title>
<g id="a_node11"><a xlink:href="https://unknown.com/" xlink:title="FreeBSD">
<polygon fill="lightgrey" stroke="black" points="554,-36 473,-36 473,0 554,0 554,-36"/>
<text text-anchor="middle" x="513.5" y="-14.3" font-family="Times,serif" font-size="14.00">FreeBSD</text>
</a>
</g>
</g>
<!-- Linux -->
<g id="node12" class="node">
<title>Linux</title>
<g id="a_node12"><a xlink:href="https://unknown.com/" xlink:title="Linux">
<polygon fill="lightgrey" stroke="black" points="628.5,-36 572.5,-36 572.5,0 628.5,0 628.5,-36"/>
<text text-anchor="middle" x="600.5" y="-14.3" font-family="Times,serif" font-size="14.00">Linux</text>
</a>
</g>
</g>
<!-- MulleFoundationBase -->
<g id="node14" class="node">
<title>MulleFoundationBase</title>
<g id="a_node14"><a xlink:href="https://github.com/MulleFoundation/MulleFoundationBase" xlink:title="MulleFoundationBase">
<polygon fill="lightgrey" stroke="black" points="2701.5,-180 2529.5,-180 2529.5,-144 2701.5,-144 2701.5,-180"/>
<text text-anchor="middle" x="2615.5" y="-158.3" font-family="Times,serif" font-size="14.00">MulleFoundationBase</text>
</a>
</g>
</g>
<!-- MulleObjC -->
<g id="node15" class="node">
<title>MulleObjC</title>
<g id="a_node15"><a xlink:href="https://github.com/mulle-objc/MulleObjC" xlink:title="MulleObjC">
<polygon fill="lightgrey" stroke="black" points="1421.5,-108 1329.5,-108 1329.5,-72 1421.5,-72 1421.5,-108"/>
<text text-anchor="middle" x="1375.5" y="-86.3" font-family="Times,serif" font-size="14.00">MulleObjC</text>
</a>
</g>
</g>
<!-- MulleFoundationBase&#45;&gt;MulleObjC -->
<g id="edge7" class="edge">
<title>MulleFoundationBase&#45;&gt;MulleObjC</title>
<path fill="none" stroke="black" d="M2529.25,-159.99C2296.93,-156.83 1660.76,-145.1 1431.46,-107.83"/>
<polygon fill="black" stroke="black" points="1431.95,-104.37 1421.5,-106.15 1430.78,-111.27 1431.95,-104.37"/>
</g>
<!-- MulleObjCArchiverFoundation -->
<g id="node16" class="node">
<title>MulleObjCArchiverFoundation</title>
<g id="a_node16"><a xlink:href="https://github.com/MulleFoundation/MulleObjCArchiverFoundation@*" xlink:title="MulleObjCArchiverFoundation">
<polygon fill="lightgrey" stroke="black" points="1673,-108 1440,-108 1440,-72 1673,-72 1673,-108"/>
<text text-anchor="middle" x="1556.5" y="-86.3" font-family="Times,serif" font-size="14.00">MulleObjCArchiverFoundation</text>
</a>
</g>
</g>
<!-- MulleFoundationBase&#45;&gt;MulleObjCArchiverFoundation -->
<g id="edge8" class="edge">
<title>MulleFoundationBase&#45;&gt;MulleObjCArchiverFoundation</title>
<path fill="none" stroke="black" d="M2529.37,-158.37C2366.26,-152.9 2000.87,-138.28 1683.56,-108.16"/>
<polygon fill="black" stroke="black" points="1683.53,-104.64 1673.24,-107.17 1682.86,-111.61 1683.53,-104.64"/>
</g>
<!-- MulleObjCContainerFoundation -->
<g id="node17" class="node">
<title>MulleObjCContainerFoundation</title>
<g id="a_node17"><a xlink:href="https://github.com/MulleFoundation/MulleObjCContainerFoundation@*" xlink:title="MulleObjCContainerFoundation">
<polygon fill="lightgrey" stroke="black" points="1934,-108 1691,-108 1691,-72 1934,-72 1934,-108"/>
<text text-anchor="middle" x="1812.5" y="-86.3" font-family="Times,serif" font-size="14.00">MulleObjCContainerFoundation</text>
</a>
</g>
</g>
<!-- MulleFoundationBase&#45;&gt;MulleObjCContainerFoundation -->
<g id="edge9" class="edge">
<title>MulleFoundationBase&#45;&gt;MulleObjCContainerFoundation</title>
<path fill="none" stroke="black" d="M2529.32,-155.64C2403.11,-147.47 2160.39,-130.55 1944.21,-108.15"/>
<polygon fill="black" stroke="black" points="1944.58,-104.67 1934.27,-107.12 1943.85,-111.63 1944.58,-104.67"/>
</g>
<!-- MulleObjCKVCFoundation -->
<g id="node18" class="node">
<title>MulleObjCKVCFoundation</title>
<g id="a_node18"><a xlink:href="https://github.com/MulleFoundation/MulleObjCKVCFoundation@*" xlink:title="MulleObjCKVCFoundation">
<polygon fill="lightgrey" stroke="black" points="2155,-108 1952,-108 1952,-72 2155,-72 2155,-108"/>
<text text-anchor="middle" x="2053.5" y="-86.3" font-family="Times,serif" font-size="14.00">MulleObjCKVCFoundation</text>
</a>
</g>
</g>
<!-- MulleFoundationBase&#45;&gt;MulleObjCKVCFoundation -->
<g id="edge10" class="edge">
<title>MulleFoundationBase&#45;&gt;MulleObjCKVCFoundation</title>
<path fill="none" stroke="black" d="M2529.35,-151.78C2440.72,-142.09 2298.41,-125.96 2165.09,-108.05"/>
<polygon fill="black" stroke="black" points="2165.48,-104.57 2155.1,-106.71 2164.55,-111.51 2165.48,-104.57"/>
</g>
<!-- MulleObjCLockFoundation -->
<g id="node19" class="node">
<title>MulleObjCLockFoundation</title>
<g id="a_node19"><a xlink:href="https://github.com/MulleFoundation/MulleObjCLockFoundation@*" xlink:title="MulleObjCLockFoundation">
<polygon fill="lightgrey" stroke="black" points="2379.5,-108 2173.5,-108 2173.5,-72 2379.5,-72 2379.5,-108"/>
<text text-anchor="middle" x="2276.5" y="-86.3" font-family="Times,serif" font-size="14.00">MulleObjCLockFoundation</text>
</a>
</g>
</g>
<!-- MulleFoundationBase&#45;&gt;MulleObjCLockFoundation -->
<g id="edge11" class="edge">
<title>MulleFoundationBase&#45;&gt;MulleObjCLockFoundation</title>
<path fill="none" stroke="black" d="M2533,-143.97C2483.49,-133.74 2420.38,-120.71 2369.15,-110.13"/>
<polygon fill="black" stroke="black" points="2369.57,-106.64 2359.07,-108.05 2368.16,-113.5 2369.57,-106.64"/>
</g>
<!-- MulleObjCMathFoundation -->
<g id="node20" class="node">
<title>MulleObjCMathFoundation</title>
<g id="a_node20"><a xlink:href="https://github.com/MulleFoundation/MulleObjCMathFoundation@*" xlink:title="MulleObjCMathFoundation">
<polygon fill="lightgrey" stroke="black" points="2607.5,-108 2397.5,-108 2397.5,-72 2607.5,-72 2607.5,-108"/>
<text text-anchor="middle" x="2502.5" y="-86.3" font-family="Times,serif" font-size="14.00">MulleObjCMathFoundation</text>
</a>
</g>
</g>
<!-- MulleFoundationBase&#45;&gt;MulleObjCMathFoundation -->
<g id="edge12" class="edge">
<title>MulleFoundationBase&#45;&gt;MulleObjCMathFoundation</title>
<path fill="none" stroke="black" d="M2587.86,-143.88C2573.08,-134.72 2554.71,-123.34 2538.8,-113.48"/>
<polygon fill="black" stroke="black" points="2540.59,-110.48 2530.25,-108.19 2536.91,-116.43 2540.59,-110.48"/>
</g>
<!-- MulleObjCPlistFoundation -->
<g id="node21" class="node">
<title>MulleObjCPlistFoundation</title>
<g id="a_node21"><a xlink:href="https://github.com/MulleFoundation/MulleObjCPlistFoundation@*" xlink:title="MulleObjCPlistFoundation">
<polygon fill="lightgrey" stroke="black" points="2831,-108 2626,-108 2626,-72 2831,-72 2831,-108"/>
<text text-anchor="middle" x="2728.5" y="-86.3" font-family="Times,serif" font-size="14.00">MulleObjCPlistFoundation</text>
</a>
</g>
</g>
<!-- MulleFoundationBase&#45;&gt;MulleObjCPlistFoundation -->
<g id="edge13" class="edge">
<title>MulleFoundationBase&#45;&gt;MulleObjCPlistFoundation</title>
<path fill="none" stroke="black" d="M2643.14,-143.88C2657.92,-134.72 2676.29,-123.34 2692.2,-113.48"/>
<polygon fill="black" stroke="black" points="2694.09,-116.43 2700.75,-108.19 2690.41,-110.48 2694.09,-116.43"/>
</g>
<!-- MulleObjCStandardFoundation -->
<g id="node22" class="node">
<title>MulleObjCStandardFoundation</title>
<g id="a_node22"><a xlink:href="https://github.com/MulleFoundation/MulleObjCStandardFoundation@*" xlink:title="MulleObjCStandardFoundation">
<polygon fill="lightgrey" stroke="black" points="3088,-108 2849,-108 2849,-72 3088,-72 3088,-108"/>
<text text-anchor="middle" x="2968.5" y="-86.3" font-family="Times,serif" font-size="14.00">MulleObjCStandardFoundation</text>
</a>
</g>
</g>
<!-- MulleFoundationBase&#45;&gt;MulleObjCStandardFoundation -->
<g id="edge14" class="edge">
<title>MulleFoundationBase&#45;&gt;MulleObjCStandardFoundation</title>
<path fill="none" stroke="black" d="M2701.4,-143.97C2753.18,-133.7 2819.23,-120.6 2872.69,-110"/>
<polygon fill="black" stroke="black" points="2873.39,-113.43 2882.52,-108.05 2872.03,-106.56 2873.39,-113.43"/>
</g>
<!-- MulleObjCTimeFoundation -->
<g id="node23" class="node">
<title>MulleObjCTimeFoundation</title>
<g id="a_node23"><a xlink:href="https://github.com/MulleFoundation/MulleObjCTimeFoundation@*" xlink:title="MulleObjCTimeFoundation">
<polygon fill="lightgrey" stroke="black" points="3314.5,-108 3106.5,-108 3106.5,-72 3314.5,-72 3314.5,-108"/>
<text text-anchor="middle" x="3210.5" y="-86.3" font-family="Times,serif" font-size="14.00">MulleObjCTimeFoundation</text>
</a>
</g>
</g>
<!-- MulleFoundationBase&#45;&gt;MulleObjCTimeFoundation -->
<g id="edge15" class="edge">
<title>MulleFoundationBase&#45;&gt;MulleObjCTimeFoundation</title>
<path fill="none" stroke="black" d="M2701.64,-152.51C2797.98,-142.79 2958.61,-125.87 3096.5,-108 3096.6,-107.99 3096.7,-107.97 3096.81,-107.96"/>
<polygon fill="black" stroke="black" points="3097,-111.46 3106.46,-106.68 3096.08,-104.53 3097,-111.46"/>
</g>
<!-- MulleObjCUnicodeFoundation -->
<g id="node24" class="node">
<title>MulleObjCUnicodeFoundation</title>
<g id="a_node24"><a xlink:href="https://github.com/MulleFoundation/MulleObjCUnicodeFoundation@*" xlink:title="MulleObjCUnicodeFoundation">
<polygon fill="lightgrey" stroke="black" points="3564,-108 3333,-108 3333,-72 3564,-72 3564,-108"/>
<text text-anchor="middle" x="3448.5" y="-86.3" font-family="Times,serif" font-size="14.00">MulleObjCUnicodeFoundation</text>
</a>
</g>
</g>
<!-- MulleFoundationBase&#45;&gt;MulleObjCUnicodeFoundation -->
<g id="edge16" class="edge">
<title>MulleFoundationBase&#45;&gt;MulleObjCUnicodeFoundation</title>
<path fill="none" stroke="black" d="M2701.75,-156.23C2833.27,-148.58 3092.06,-132.06 3322.5,-108.07"/>
<polygon fill="black" stroke="black" points="3323.17,-111.52 3332.76,-106.99 3322.44,-104.55 3323.17,-111.52"/>
</g>
<!-- MulleObjCUUIDFoundation -->
<g id="node25" class="node">
<title>MulleObjCUUIDFoundation</title>
<g id="a_node25"><a xlink:href="https://github.com/MulleFoundation/MulleObjCUUIDFoundation@*" xlink:title="MulleObjCUUIDFoundation">
<polygon fill="lightgrey" stroke="black" points="3795,-108 3582,-108 3582,-72 3795,-72 3795,-108"/>
<text text-anchor="middle" x="3688.5" y="-86.3" font-family="Times,serif" font-size="14.00">MulleObjCUUIDFoundation</text>
</a>
</g>
</g>
<!-- MulleFoundationBase&#45;&gt;MulleObjCUUIDFoundation -->
<g id="edge17" class="edge">
<title>MulleFoundationBase&#45;&gt;MulleObjCUUIDFoundation</title>
<path fill="none" stroke="black" d="M2701.58,-158.88C2867.87,-154.2 3244.99,-140.78 3571.59,-108.14"/>
<polygon fill="black" stroke="black" points="3572.12,-111.61 3581.72,-107.12 3571.42,-104.64 3572.12,-111.61"/>
</g>
<!-- MulleObjCValueFoundation -->
<g id="node26" class="node">
<title>MulleObjCValueFoundation</title>
<g id="a_node26"><a xlink:href="https://github.com/MulleFoundation/MulleObjCValueFoundation@*" xlink:title="MulleObjCValueFoundation">
<polygon fill="lightgrey" stroke="black" points="4024.5,-108 3812.5,-108 3812.5,-72 4024.5,-72 4024.5,-108"/>
<text text-anchor="middle" x="3918.5" y="-86.3" font-family="Times,serif" font-size="14.00">MulleObjCValueFoundation</text>
</a>
</g>
</g>
<!-- MulleFoundationBase&#45;&gt;MulleObjCValueFoundation -->
<g id="edge18" class="edge">
<title>MulleFoundationBase&#45;&gt;MulleObjCValueFoundation</title>
<path fill="none" stroke="black" d="M2701.51,-160.21C2896.01,-157.78 3384.69,-147.94 3802.19,-108.17"/>
<polygon fill="black" stroke="black" points="3802.73,-111.64 3812.35,-107.2 3802.06,-104.67 3802.73,-111.64"/>
</g>
<!-- mulle&#45;objc&#45;cc -->
<g id="node30" class="node">
<title>mulle&#45;objc&#45;cc</title>
<g id="a_node30"><a xlink:href="https://github.com/mulle-cc/mulle-objc-cc" xlink:title="mulle&#45;objc&#45;cc">
<polygon fill="lightgrey" stroke="black" points="1287.5,-36 1177.5,-36 1177.5,0 1287.5,0 1287.5,-36"/>
<text text-anchor="middle" x="1232.5" y="-14.3" font-family="Times,serif" font-size="14.00">mulle&#45;objc&#45;cc</text>
</a>
</g>
</g>
<!-- MulleObjC&#45;&gt;mulle&#45;objc&#45;cc -->
<g id="edge25" class="edge">
<title>MulleObjC&#45;&gt;mulle&#45;objc&#45;cc</title>
<path fill="none" stroke="black" d="M1340.52,-71.88C1321.3,-62.47 1297.27,-50.71 1276.76,-40.67"/>
<polygon fill="black" stroke="black" points="1278.14,-37.44 1267.62,-36.19 1275.06,-43.73 1278.14,-37.44"/>
</g>
<!-- mulle&#45;objc&#45;debug -->
<g id="node31" class="node">
<title>mulle&#45;objc&#45;debug</title>
<g id="a_node31"><a xlink:href="https://github.com/mulle-objc/mulle-objc-debug" xlink:title="mulle&#45;objc&#45;debug">
<polygon fill="lightgrey" stroke="black" points="1445,-36 1306,-36 1306,0 1445,0 1445,-36"/>
<text text-anchor="middle" x="1375.5" y="-14.3" font-family="Times,serif" font-size="14.00">mulle&#45;objc&#45;debug</text>
</a>
</g>
</g>
<!-- MulleObjC&#45;&gt;mulle&#45;objc&#45;debug -->
<g id="edge26" class="edge">
<title>MulleObjC&#45;&gt;mulle&#45;objc&#45;debug</title>
<path fill="none" stroke="black" d="M1375.5,-71.7C1375.5,-63.98 1375.5,-54.71 1375.5,-46.11"/>
<polygon fill="black" stroke="black" points="1379,-46.1 1375.5,-36.1 1372,-46.1 1379,-46.1"/>
</g>
<!-- mulle&#45;objc&#45;runtime -->
<g id="node33" class="node">
<title>mulle&#45;objc&#45;runtime</title>
<g id="a_node33"><a xlink:href="https://github.com/mulle-objc/mulle-objc-runtime" xlink:title="mulle&#45;objc&#45;runtime">
<polygon fill="lightgrey" stroke="black" points="1615.5,-36 1463.5,-36 1463.5,0 1615.5,0 1615.5,-36"/>
<text text-anchor="middle" x="1539.5" y="-14.3" font-family="Times,serif" font-size="14.00">mulle&#45;objc&#45;runtime</text>
</a>
</g>
</g>
<!-- MulleObjC&#45;&gt;mulle&#45;objc&#45;runtime -->
<g id="edge27" class="edge">
<title>MulleObjC&#45;&gt;mulle&#45;objc&#45;runtime</title>
<path fill="none" stroke="black" d="M1415.62,-71.88C1438.14,-62.26 1466.42,-50.19 1490.27,-40.01"/>
<polygon fill="black" stroke="black" points="1491.69,-43.21 1499.51,-36.07 1488.94,-36.77 1491.69,-43.21"/>
</g>
<!-- MulleObjCOSFoundation&#45;&gt;BSD -->
<g id="edge28" class="edge">
<title>MulleObjCOSFoundation&#45;&gt;BSD</title>
<path fill="none" stroke="black" d="M510.02,-71.97C471.56,-63.66 426.28,-52.48 378.38,-35.97"/>
<polygon fill="black" stroke="black" points="379.37,-32.61 368.77,-32.6 377.05,-39.21 379.37,-32.61"/>
</g>
<!-- MulleObjCOSFoundation&#45;&gt;Darwin -->
<g id="edge29" class="edge">
<title>MulleObjCOSFoundation&#45;&gt;Darwin</title>
<path fill="none" stroke="black" d="M556.04,-71.9C531.42,-62.4 500.04,-50.27 464.41,-36.34"/>
<polygon fill="black" stroke="black" points="465.35,-32.95 454.76,-32.57 462.8,-39.47 465.35,-32.95"/>
</g>
<!-- MulleObjCOSFoundation&#45;&gt;FreeBSD -->
<g id="edge30" class="edge">
<title>MulleObjCOSFoundation&#45;&gt;FreeBSD</title>
<path fill="none" stroke="black" d="M578.99,-71.7C568.04,-62.88 554.55,-52.03 542.68,-42.47"/>
<polygon fill="black" stroke="black" points="544.74,-39.65 534.76,-36.1 540.36,-45.1 544.74,-39.65"/>
</g>
<!-- MulleObjCOSFoundation&#45;&gt;Linux -->
<g id="edge31" class="edge">
<title>MulleObjCOSFoundation&#45;&gt;Linux</title>
<path fill="none" stroke="black" d="M600.5,-71.7C600.5,-63.98 600.5,-54.71 600.5,-46.11"/>
<polygon fill="black" stroke="black" points="604,-46.1 600.5,-36.1 597,-46.1 604,-46.1"/>
</g>
<!-- OSBase -->
<g id="node34" class="node">
<title>OSBase</title>
<g id="a_node34"><a xlink:href="https://unknown.com/" xlink:title="OSBase">
<polygon fill="lightgrey" stroke="black" points="718.5,-36 646.5,-36 646.5,0 718.5,0 718.5,-36"/>
<text text-anchor="middle" x="682.5" y="-14.3" font-family="Times,serif" font-size="14.00">OSBase</text>
</a>
</g>
</g>
<!-- MulleObjCOSFoundation&#45;&gt;OSBase -->
<g id="edge32" class="edge">
<title>MulleObjCOSFoundation&#45;&gt;OSBase</title>
<path fill="none" stroke="black" d="M620.77,-71.7C631,-62.97 643.56,-52.24 654.68,-42.75"/>
<polygon fill="black" stroke="black" points="657.13,-45.26 662.46,-36.1 652.59,-39.94 657.13,-45.26"/>
</g>
<!-- Posix -->
<g id="node35" class="node">
<title>Posix</title>
<g id="a_node35"><a xlink:href="https://unknown.com/" xlink:title="Posix">
<polygon fill="lightgrey" stroke="black" points="790.5,-36 736.5,-36 736.5,0 790.5,0 790.5,-36"/>
<text text-anchor="middle" x="763.5" y="-14.3" font-family="Times,serif" font-size="14.00">Posix</text>
</a>
</g>
</g>
<!-- MulleObjCOSFoundation&#45;&gt;Posix -->
<g id="edge33" class="edge">
<title>MulleObjCOSFoundation&#45;&gt;Posix</title>
<path fill="none" stroke="black" d="M642.75,-71.93C665.43,-62.65 694.02,-50.73 727.01,-36.13"/>
<polygon fill="black" stroke="black" points="728.72,-39.2 736.43,-31.94 725.87,-32.81 728.72,-39.2"/>
</g>
<!-- Windows -->
<g id="node36" class="node">
<title>Windows</title>
<g id="a_node36"><a xlink:href="https://unknown.com/" xlink:title="Windows">
<polygon fill="lightgrey" stroke="black" points="890,-36 809,-36 809,0 890,0 890,-36"/>
<text text-anchor="middle" x="849.5" y="-14.3" font-family="Times,serif" font-size="14.00">Windows</text>
</a>
</g>
</g>
<!-- MulleObjCOSFoundation&#45;&gt;Windows -->
<g id="edge34" class="edge">
<title>MulleObjCOSFoundation&#45;&gt;Windows</title>
<path fill="none" stroke="black" d="M668.98,-71.98C705.1,-62.72 750.31,-50.67 799.11,-36.02"/>
<polygon fill="black" stroke="black" points="800.36,-39.3 808.91,-33.05 798.33,-32.6 800.36,-39.3"/>
</g>
<!-- src/OSBase -->
<g id="node37" class="node">
<title>src/OSBase</title>
<polygon fill="lightgrey" stroke="black" points="2664.5,-252 2566.5,-252 2566.5,-216 2664.5,-216 2664.5,-252"/>
<text text-anchor="middle" x="2615.5" y="-230.3" font-family="Times,serif" font-size="14.00">src/OSBase</text>
</g>
<!-- src/OSBase&#45;&gt;MulleFoundationBase -->
<g id="edge35" class="edge">
<title>src/OSBase&#45;&gt;MulleFoundationBase</title>
<path fill="none" stroke="black" d="M2615.5,-215.7C2615.5,-207.98 2615.5,-198.71 2615.5,-190.11"/>
<polygon fill="black" stroke="black" points="2619,-190.1 2615.5,-180.1 2612,-190.1 2619,-190.1"/>
</g>
</g>
</svg>
